<?xml version="1.0" encoding="utf-8"?>
<!-- Generator: Adobe Illustrator 27.7.0, SVG Export Plug-In . SVG Version: 6.00 Build 0)  -->
<svg version="1.1" id="Layer_2" xmlns="http://www.w3.org/2000/svg" xmlns:xlink="http://www.w3.org/1999/xlink" x="0px" y="0px"
	 height="20px" width="20px"
	 viewBox="0 0 1000 1000" style="enable-background:new 0 0 1500 1500;" xml:space="preserve">
<style type="text/css">
	.st0{fill:#FFFF;}
</style>
<polygon class="st0" points="988.7,686.1 500,975.7 11.3,686.1 139.1,686.1 139.1,446 860.9,446 860.9,686.1 "/>
<g>
	<g>
		<line class="st0" x1="252.3" y1="44.9" x2="338.2" y2="188.6"/>
	</g>
	<g>
		<line class="st0" x1="661.8" y1="188.6" x2="747.7" y2="44.9"/>
		<path class="st0" d="M139.1,415.8h721.8c-9-109.8-67.1-205.7-152.2-265.8l56.6-94.6c5.8-9.7,2.6-22.3-7.1-28.2
			c-3.3-2-6.9-2.9-10.5-2.9c-7,0-13.8,3.6-17.6,10l-56.1,93.9C622.3,99.9,563,83.8,500,83.8s-122.3,16.1-173.9,44.4l-56.1-93.9
			c-5.8-9.7-18.4-12.9-28.2-7.1c-9.7,5.8-12.9,18.4-7.1,28.2l56.6,94.6C206.1,210.1,148.1,306,139.1,415.8z M649.4,237.7
			c26,0,47.1,21.1,47.1,47.1c0,26-21.1,47.1-47.1,47.1c-26,0-47.1-21.1-47.1-47.1C602.3,258.8,623.4,237.7,649.4,237.7z
			 M350.6,237.7c26,0,47.1,21.1,47.1,47.1c0,26-21.1,47.1-47.1,47.1c-26,0-47.1-21.1-47.1-47.1C303.4,258.8,324.5,237.7,350.6,237.7
			z"/>
	</g>
</g>
</svg>
