<?xml version="1.0" encoding="UTF-8"?>
<svg id="Layer_1" data-name="Layer 1" xmlns="http://www.w3.org/2000/svg" viewBox="0 0 60 58.05">
  <defs>
    <style>
      .cls-1 {
        fill: #dd4126;
        fill-rule: evenodd;
      }
    </style>
  </defs>
  <path class="cls-1" d="m8.22,22.21c-1.63-1.36-1.49-3.9.27-5.08l12.09-7.37,7.96-.29,9.23-5.54C44.13.11,51.76-.98,58.92.91c2.05,6.34,1.14,13.28-2.48,18.88l-7.25,11.21-.59,8.26-8.26,12.09c-.93.74-2.15,1.01-3.31.72l-.19-.05c-.22-.06-.42-.17-.59-.33l-.34-.34-5.31-8.55-6.49.88-5.01-5.01-4.42-4.72,1.18-6.78-7.37-4.72-.27-.23Zm42.74-5.97c0,4.23-3.43,7.67-7.67,7.67s-7.67-3.43-7.67-7.67,3.43-7.67,7.67-7.67,7.67,3.43,7.67,7.67ZM15.38,41.29L0,55.93l2.01,2.12,15.38-14.64-2.01-2.12Zm-7.12,14.64l11.04-10.51,2.01,2.12-11.04,10.51-2.01-2.12Zm2.78-18.77L0,47.67l2.01,2.12,11.04-10.51-2.01-2.12Z"/>
</svg>