<?xml version="1.0" encoding="UTF-8"?>
<svg id="Layer_1" data-name="Layer 1" xmlns="http://www.w3.org/2000/svg" viewBox="0 0 135 40">
  <defs>
    <style>
      .cls-1 {
        fill: #fff;
      }

      .cls-2 {
        fill: none;
        stroke: #a6a6a6;
      }
    </style>
  </defs>
  <rect x=".5" y=".5" width="134" height="39" rx="4.5" ry="4.5"/>
  <path class="cls-1" d="m28.12,17h-2.24v-7.27h2.34c.71,0,1.31.15,1.81.44.5.29.89.7,1.15,1.25.27.54.4,1.19.4,1.94s-.13,1.41-.4,1.96c-.27.54-.66.96-1.18,1.26-.52.29-1.14.44-1.88.44Zm-1.36-.78h1.31c.6,0,1.1-.12,1.5-.35.4-.23.69-.56.88-.99.19-.43.29-.94.29-1.53s-.1-1.09-.29-1.52c-.19-.43-.48-.75-.86-.98-.38-.23-.86-.34-1.42-.34h-1.41v5.71Zm8.41.89c-.49,0-.92-.12-1.3-.35-.37-.23-.66-.56-.87-.98-.21-.42-.31-.91-.31-1.48s.1-1.06.31-1.49c.21-.42.5-.75.87-.99.37-.23.8-.35,1.3-.35s.92.12,1.29.35c.37.23.66.56.87.99.21.42.31.92.31,1.49s-.1,1.06-.31,1.48c-.21.42-.49.75-.87.98-.37.23-.8.35-1.29.35Zm0-.75c.37,0,.68-.1.92-.29.24-.19.42-.44.54-.76.12-.31.17-.65.17-1.02s-.06-.7-.17-1.02c-.12-.31-.29-.57-.54-.76-.24-.19-.55-.29-.92-.29s-.68.1-.92.29c-.24.19-.42.45-.54.76-.12.31-.17.65-.17,1.02s.06.7.17,1.02.29.56.54.76c.24.19.55.29.92.29Zm4.8.64l-1.66-5.45h.88l1.18,4.18h.06l1.16-4.18h.89l1.15,4.16h.06l1.18-4.16h.88l-1.66,5.45h-.82l-1.19-4.19h-.09l-1.19,4.19h-.82Zm7.73-3.28v3.28h-.84v-5.45h.81v.85h.07c.13-.28.32-.5.58-.67.26-.17.6-.26,1.01-.26.37,0,.69.08.97.23.28.15.49.38.65.68.15.3.23.69.23,1.15v3.47h-.84v-3.41c0-.43-.11-.76-.33-1-.22-.24-.53-.36-.92-.36-.27,0-.51.06-.72.17-.21.12-.37.29-.49.51-.12.22-.18.49-.18.81Zm5.85-3.99v7.27h-.84v-7.27h.84Zm3.75,7.39c-.49,0-.92-.12-1.3-.35-.37-.23-.66-.56-.87-.98-.21-.42-.31-.91-.31-1.48s.1-1.06.31-1.49c.21-.42.5-.75.87-.99.37-.23.8-.35,1.3-.35s.92.12,1.29.35c.37.23.66.56.87.99.21.42.31.92.31,1.49s-.1,1.06-.31,1.48c-.21.42-.49.75-.87.98-.37.23-.8.35-1.29.35Zm0-.75c.37,0,.68-.1.92-.29.24-.19.42-.44.54-.76s.17-.65.17-1.02-.06-.7-.17-1.02c-.12-.31-.29-.57-.54-.76-.24-.19-.55-.29-.92-.29s-.68.1-.92.29c-.24.19-.42.45-.54.76-.12.31-.17.65-.17,1.02s.06.7.17,1.02c.12.31.29.56.54.76.24.19.55.29.92.29Zm5.36.77c-.35,0-.66-.07-.94-.2-.28-.13-.51-.32-.67-.57-.17-.25-.25-.55-.25-.91,0-.31.06-.57.18-.76.12-.2.29-.35.49-.46.21-.11.43-.19.68-.25.25-.06.5-.1.76-.13.33-.04.6-.07.81-.1.21-.02.36-.06.45-.12.1-.05.15-.15.15-.28v-.03c0-.35-.1-.62-.29-.82-.19-.19-.48-.29-.86-.29s-.71.09-.94.26c-.23.18-.39.36-.48.56l-.8-.28c.14-.33.33-.59.57-.77.24-.19.5-.32.78-.39.28-.08.56-.11.84-.11.18,0,.38.02.6.06.23.04.45.12.66.25.22.13.39.32.54.58.14.26.21.6.21,1.04v3.59h-.84v-.74h-.04c-.06.12-.15.24-.28.38-.13.14-.31.25-.53.34-.22.09-.49.14-.81.14Zm.13-.75c.33,0,.61-.07.84-.2.23-.13.4-.3.52-.5.12-.21.18-.42.18-.65v-.77s-.11.08-.23.12c-.12.03-.26.06-.41.09-.15.02-.3.04-.45.06-.14.02-.26.03-.35.04-.22.03-.42.07-.61.14-.19.06-.34.16-.45.28-.11.12-.17.29-.17.5,0,.29.11.51.32.66.22.15.49.22.83.22Zm5.96.74c-.45,0-.86-.11-1.2-.34-.35-.23-.62-.56-.82-.98-.2-.42-.29-.92-.29-1.5s.1-1.07.29-1.49c.2-.42.47-.75.82-.98.35-.23.76-.34,1.21-.34.36,0,.64.06.84.18.21.12.37.25.48.4.11.15.2.27.26.36h.07v-2.68h.84v7.27h-.81v-.84h-.1c-.06.1-.15.22-.26.38-.11.15-.28.28-.49.4-.21.12-.49.17-.84.17Zm.11-.75c.34,0,.62-.09.85-.26.23-.18.41-.42.53-.74.12-.31.18-.68.18-1.09s-.06-.76-.18-1.07c-.12-.31-.29-.55-.53-.72-.23-.17-.52-.26-.86-.26s-.65.09-.89.27c-.23.18-.41.43-.53.74-.12.31-.17.65-.17,1.04s.06.74.18,1.06c.12.31.3.57.53.75.24.18.53.28.88.28Z"/>
  <rect class="cls-2" x=".5" y=".5" width="134" height="39" rx="4.5" ry="4.5"/>
  <g>
    <path class="cls-1" d="m30.68,25.25c-.48-.34-1.31-.68-2.03-.68-.79,0-1.16.36-1.16.84,0,.3.25.59.71.86l1.24.75c1.22.73,1.7,1.55,1.7,2.6,0,1.48-.98,2.82-3.17,2.82-.93,0-1.78-.24-2.38-.48v-2.17c.51.4,1.42.82,2.29.82.75,0,1.16-.36,1.16-.87,0-.32-.22-.61-.75-.91l-1.29-.76c-1.24-.72-1.63-1.52-1.63-2.58,0-1.31.84-2.74,3.28-2.74.71,0,1.44.17,2.02.43v2.09Z"/>
    <path class="cls-1" d="m39.05,31.96c-.64.3-1.37.48-2.14.48-2.75,0-4.84-2.1-4.84-4.85s2.09-4.85,4.84-4.85c.77,0,1.51.18,2.14.48v2.25c-.53-.46-1.27-.77-2.14-.77-1.6,0-2.82,1.3-2.82,2.89s1.2,2.89,2.82,2.89c.87,0,1.65-.32,2.14-.76v2.24Z"/>
    <path class="cls-1" d="m44.8,22.74c2.75,0,4.84,2.1,4.84,4.85s-2.09,4.85-4.84,4.85-4.84-2.1-4.84-4.85,2.09-4.85,4.84-4.85Zm0,7.74c1.59,0,2.81-1.29,2.81-2.89s-1.22-2.89-2.81-2.89-2.82,1.3-2.82,2.89,1.22,2.89,2.82,2.89Z"/>
    <path class="cls-1" d="m51.13,22.89h3.25c1.84,0,3.11,1,3.11,2.74,0,1.34-.77,2.12-1.7,2.38,1.17.61,1.88,2.27,2.1,4.29h-2.03c-.33-2.05-1.13-3.5-2.28-3.5h-.48v3.5h-1.96v-9.4Zm3.25,1.89h-1.29v2.12h1.29c.62,0,1.09-.37,1.09-1.05s-.47-1.06-1.09-1.06Z"/>
    <path class="cls-1" d="m59.33,32.29v-9.4h5.35v1.89h-3.39v1.83h3.11v1.89h-3.11v1.89h3.39v1.89h-5.35Z"/>
    <path class="cls-1" d="m74.23,30.28h-3.36l-.71,2h-2.2l3.48-9.4h2.2l3.48,9.4h-2.2l-.71-2Zm-2.71-1.89h2.07l-1.04-2.93-1.04,2.93Z"/>
    <path class="cls-1" d="m78.12,22.89h3.21c1.84,0,3.1,1.12,3.1,2.97s-1.26,2.99-3.1,2.99h-1.24v3.44h-1.96v-9.4Zm3.18,1.89h-1.22v2.17h1.22c.64,0,1.11-.36,1.11-1.08s-.47-1.09-1.11-1.09Z"/>
    <path class="cls-1" d="m85.85,22.89h3.21c1.84,0,3.1,1.12,3.1,2.97s-1.26,2.99-3.1,2.99h-1.24v3.44h-1.96v-9.4Zm3.18,1.89h-1.22v2.17h1.22c.64,0,1.11-.36,1.11-1.08s-.47-1.09-1.11-1.09Z"/>
  </g>
</svg>