<svg width="135" height="40" viewBox="0 0 135 40" fill="none" xmlns="http://www.w3.org/2000/svg">
<rect x="0.5" y="0.5" width="134" height="39" rx="4.5" fill="black"/>
<path d="M28.125 17H25.8807V9.72727H28.2244C28.9299 9.72727 29.5336 9.87287 30.0355 10.1641C30.5374 10.4529 30.9221 10.8684 31.1896 11.4105C31.4571 11.9503 31.5909 12.5966 31.5909 13.3494C31.5909 14.107 31.456 14.7592 31.1861 15.3061C30.9162 15.8506 30.5232 16.2696 30.0071 16.5632C29.491 16.8544 28.8636 17 28.125 17ZM26.7614 16.2188H28.0682C28.6695 16.2188 29.1679 16.1027 29.5632 15.8707C29.9586 15.6387 30.2533 15.3085 30.4474 14.88C30.6416 14.4515 30.7386 13.9413 30.7386 13.3494C30.7386 12.7623 30.6428 12.2569 30.451 11.8331C30.2592 11.407 29.9728 11.0803 29.5916 10.853C29.2105 10.6233 28.7358 10.5085 28.1676 10.5085H26.7614V16.2188ZM35.1705 17.1136C34.678 17.1136 34.246 16.9964 33.8743 16.7621C33.505 16.5277 33.2161 16.1998 33.0078 15.7784C32.8018 15.357 32.6989 14.8646 32.6989 14.3011C32.6989 13.733 32.8018 13.237 33.0078 12.8132C33.2161 12.3894 33.505 12.0604 33.8743 11.826C34.246 11.5916 34.678 11.4744 35.1705 11.4744C35.6629 11.4744 36.0938 11.5916 36.4631 11.826C36.8348 12.0604 37.1236 12.3894 37.3295 12.8132C37.5379 13.237 37.642 13.733 37.642 14.3011C37.642 14.8646 37.5379 15.357 37.3295 15.7784C37.1236 16.1998 36.8348 16.5277 36.4631 16.7621C36.0938 16.9964 35.6629 17.1136 35.1705 17.1136ZM35.1705 16.3608C35.5445 16.3608 35.8523 16.2649 36.0938 16.0732C36.3352 15.8814 36.514 15.6293 36.63 15.3168C36.746 15.0043 36.804 14.6657 36.804 14.3011C36.804 13.9366 36.746 13.5968 36.63 13.282C36.514 12.9671 36.3352 12.7126 36.0938 12.5185C35.8523 12.3243 35.5445 12.2273 35.1705 12.2273C34.7964 12.2273 34.4886 12.3243 34.2472 12.5185C34.0057 12.7126 33.8269 12.9671 33.7109 13.282C33.5949 13.5968 33.5369 13.9366 33.5369 14.3011C33.5369 14.6657 33.5949 15.0043 33.7109 15.3168C33.8269 15.6293 34.0057 15.8814 34.2472 16.0732C34.4886 16.2649 34.7964 16.3608 35.1705 16.3608ZM39.9716 17L38.3097 11.5455H39.1903L40.3693 15.7216H40.4261L41.5909 11.5455H42.4858L43.6364 15.7074H43.6932L44.8722 11.5455H45.7528L44.0909 17H43.267L42.0739 12.8097H41.9886L40.7955 17H39.9716ZM47.6989 13.7188V17H46.8608V11.5455H47.6705V12.3977H47.7415C47.8693 12.1207 48.0634 11.8982 48.3239 11.7301C48.5843 11.5597 48.9205 11.4744 49.3324 11.4744C49.7017 11.4744 50.0249 11.5502 50.3018 11.7017C50.5788 11.8509 50.7943 12.0781 50.9482 12.3835C51.102 12.6866 51.179 13.0701 51.179 13.5341V17H50.3409V13.5909C50.3409 13.1624 50.2296 12.8286 50.0071 12.5895C49.7846 12.348 49.4792 12.2273 49.0909 12.2273C48.8234 12.2273 48.5843 12.2853 48.3736 12.4013C48.1652 12.5173 48.0007 12.6866 47.88 12.9091C47.7592 13.1316 47.6989 13.4015 47.6989 13.7188ZM53.5485 9.72727V17H52.7104V9.72727H53.5485ZM57.2994 17.1136C56.8069 17.1136 56.3749 16.9964 56.0032 16.7621C55.6339 16.5277 55.3451 16.1998 55.1367 15.7784C54.9308 15.357 54.8278 14.8646 54.8278 14.3011C54.8278 13.733 54.9308 13.237 55.1367 12.8132C55.3451 12.3894 55.6339 12.0604 56.0032 11.826C56.3749 11.5916 56.8069 11.4744 57.2994 11.4744C57.7918 11.4744 58.2227 11.5916 58.592 11.826C58.9637 12.0604 59.2525 12.3894 59.4585 12.8132C59.6668 13.237 59.771 13.733 59.771 14.3011C59.771 14.8646 59.6668 15.357 59.4585 15.7784C59.2525 16.1998 58.9637 16.5277 58.592 16.7621C58.2227 16.9964 57.7918 17.1136 57.2994 17.1136ZM57.2994 16.3608C57.6734 16.3608 57.9812 16.2649 58.2227 16.0732C58.4641 15.8814 58.6429 15.6293 58.7589 15.3168C58.8749 15.0043 58.9329 14.6657 58.9329 14.3011C58.9329 13.9366 58.8749 13.5968 58.7589 13.282C58.6429 12.9671 58.4641 12.7126 58.2227 12.5185C57.9812 12.3243 57.6734 12.2273 57.2994 12.2273C56.9253 12.2273 56.6175 12.3243 56.3761 12.5185C56.1346 12.7126 55.9558 12.9671 55.8398 13.282C55.7238 13.5968 55.6658 13.9366 55.6658 14.3011C55.6658 14.6657 55.7238 15.0043 55.8398 15.3168C55.9558 15.6293 56.1346 15.8814 56.3761 16.0732C56.6175 16.2649 56.9253 16.3608 57.2994 16.3608ZM62.6554 17.1278C62.3097 17.1278 61.996 17.0627 61.7143 16.9325C61.4326 16.8 61.2089 16.6094 61.0431 16.3608C60.8774 16.1098 60.7946 15.8068 60.7946 15.4517C60.7946 15.1392 60.8561 14.8859 60.9792 14.6918C61.1023 14.4953 61.2669 14.3414 61.4728 14.2301C61.6788 14.1188 61.9061 14.036 62.1547 13.9815C62.4056 13.9247 62.6577 13.8797 62.911 13.8466C63.2425 13.804 63.5112 13.772 63.7172 13.7507C63.9255 13.727 64.077 13.688 64.1717 13.6335C64.2688 13.5791 64.3173 13.4844 64.3173 13.3494V13.321C64.3173 12.9706 64.2214 12.6984 64.0297 12.5043C63.8403 12.3101 63.5526 12.2131 63.1667 12.2131C62.7666 12.2131 62.4529 12.3007 62.2257 12.4759C61.9984 12.651 61.8386 12.8381 61.7463 13.0369L60.9508 12.7528C61.0929 12.4214 61.2823 12.1634 61.519 11.9787C61.7581 11.7917 62.0185 11.6615 62.3002 11.5881C62.5843 11.5123 62.8637 11.4744 63.1383 11.4744C63.3135 11.4744 63.5147 11.4957 63.742 11.5384C63.9717 11.5786 64.193 11.6626 64.4061 11.7905C64.6215 11.9183 64.8002 12.1113 64.9423 12.3693C65.0843 12.6274 65.1554 12.973 65.1554 13.4062V17H64.3173V16.2614H64.2747C64.2179 16.3797 64.1232 16.5064 63.9906 16.6413C63.858 16.7763 63.6816 16.8911 63.4615 16.9858C63.2413 17.0805 62.9726 17.1278 62.6554 17.1278ZM62.7832 16.375C63.1146 16.375 63.394 16.3099 63.6213 16.1797C63.8509 16.0495 64.0237 15.8814 64.1397 15.6754C64.2581 15.4695 64.3173 15.2528 64.3173 15.0256V14.2585C64.2818 14.3011 64.2037 14.3402 64.0829 14.3757C63.9645 14.4089 63.8272 14.4384 63.671 14.4645C63.5171 14.4882 63.3668 14.5095 63.22 14.5284C63.0756 14.545 62.9584 14.5592 62.8684 14.571C62.6506 14.5994 62.447 14.6456 62.2576 14.7095C62.0706 14.7711 61.9191 14.8646 61.8031 14.9901C61.6895 15.1132 61.6326 15.2812 61.6326 15.4943C61.6326 15.7855 61.7404 16.0057 61.9558 16.1548C62.1736 16.3016 62.4494 16.375 62.7832 16.375ZM68.7447 17.1136C68.2901 17.1136 67.8888 16.9988 67.5408 16.7692C67.1928 16.5372 66.9206 16.2105 66.7241 15.7891C66.5276 15.3653 66.4293 14.8646 66.4293 14.2869C66.4293 13.714 66.5276 13.2169 66.7241 12.7955C66.9206 12.3741 67.194 12.0485 67.5444 11.8189C67.8948 11.5893 68.2996 11.4744 68.7589 11.4744C69.114 11.4744 69.3945 11.5336 69.6005 11.652C69.8088 11.768 69.9674 11.9006 70.0763 12.0497C70.1876 12.1965 70.274 12.3172 70.3356 12.4119H70.4066V9.72727H71.2447V17H70.435V16.1619H70.3356C70.274 16.2614 70.1864 16.3868 70.0728 16.5384C69.9592 16.6875 69.797 16.8213 69.5863 16.9396C69.3756 17.0556 69.0951 17.1136 68.7447 17.1136ZM68.8583 16.3608C69.1945 16.3608 69.4786 16.2732 69.7106 16.098C69.9426 15.9205 70.119 15.6754 70.2397 15.3629C70.3604 15.0481 70.4208 14.6847 70.4208 14.2727C70.4208 13.8655 70.3616 13.5092 70.2433 13.2038C70.1249 12.8961 69.9497 12.657 69.7177 12.4865C69.4857 12.3137 69.1992 12.2273 68.8583 12.2273C68.5032 12.2273 68.2073 12.3184 67.9705 12.5007C67.7362 12.6806 67.5598 12.9257 67.4414 13.2358C67.3254 13.5436 67.2674 13.8892 67.2674 14.2727C67.2674 14.661 67.3266 15.0137 67.445 15.331C67.5657 15.6458 67.7433 15.8968 67.9776 16.0838C68.2144 16.2685 68.5079 16.3608 68.8583 16.3608Z" fill="white"/>
<path d="M26.8857 30H25.2379L27.7486 22.7273H29.7301L32.2372 30H30.5895L28.7678 24.3892H28.7109L26.8857 30ZM26.7827 27.1413H30.6747V28.3416H26.7827V27.1413ZM39.1957 22.7273V30H37.8675L34.7035 25.4226H34.6502V30H33.1126V22.7273H34.462L37.6012 27.3011H37.6651V22.7273H39.1957ZM43.0442 30H40.4661V22.7273H43.0655C43.7971 22.7273 44.4268 22.8729 44.9547 23.1641C45.4827 23.4529 45.8887 23.8684 46.1728 24.4105C46.4592 24.9527 46.6025 25.6013 46.6025 26.3565C46.6025 27.1141 46.4592 27.7652 46.1728 28.3097C45.8887 28.8542 45.4803 29.272 44.9476 29.5632C44.4173 29.8544 43.7828 30 43.0442 30ZM42.0037 28.6825H42.9803C43.4348 28.6825 43.8172 28.602 44.1273 28.4411C44.4398 28.2777 44.6742 28.0256 44.8304 27.6847C44.9891 27.3414 45.0684 26.8987 45.0684 26.3565C45.0684 25.8191 44.9891 25.38 44.8304 25.0391C44.6742 24.6982 44.441 24.4472 44.1309 24.2862C43.8207 24.1252 43.4384 24.0447 42.9838 24.0447H42.0037V28.6825ZM47.7415 30V22.7273H50.6108C51.16 22.7273 51.6288 22.8255 52.017 23.022C52.4077 23.2161 52.7048 23.492 52.9084 23.8494C53.1143 24.2045 53.2173 24.6224 53.2173 25.103C53.2173 25.5859 53.1132 26.0014 52.9048 26.3494C52.6965 26.6951 52.3946 26.9602 51.9993 27.1449C51.6063 27.3295 51.1304 27.4219 50.5717 27.4219H48.6506V26.1861H50.3232C50.6167 26.1861 50.8606 26.1458 51.0547 26.0653C51.2488 25.9848 51.3932 25.8641 51.4879 25.7031C51.585 25.5421 51.6335 25.3421 51.6335 25.103C51.6335 24.8615 51.585 24.6579 51.4879 24.4922C51.3932 24.3265 51.2476 24.201 51.0511 24.1158C50.857 24.0282 50.612 23.9844 50.3161 23.9844H49.2791V30H47.7415ZM51.669 26.6903L53.4766 30H51.7791L50.0107 26.6903H51.669ZM60.9872 26.3636C60.9872 27.1567 60.8369 27.8314 60.5362 28.3878C60.2379 28.9441 59.8307 29.3691 59.3146 29.6626C58.8009 29.9538 58.2232 30.0994 57.5817 30.0994C56.9354 30.0994 56.3554 29.9527 55.8416 29.6591C55.3279 29.3655 54.9219 28.9406 54.6236 28.3842C54.3253 27.8279 54.1761 27.1544 54.1761 26.3636C54.1761 25.5705 54.3253 24.8958 54.6236 24.3395C54.9219 23.7831 55.3279 23.3594 55.8416 23.0682C56.3554 22.7746 56.9354 22.6278 57.5817 22.6278C58.2232 22.6278 58.8009 22.7746 59.3146 23.0682C59.8307 23.3594 60.2379 23.7831 60.5362 24.3395C60.8369 24.8958 60.9872 25.5705 60.9872 26.3636ZM59.4283 26.3636C59.4283 25.8499 59.3513 25.4167 59.1974 25.0639C59.0459 24.7112 58.8317 24.4437 58.5547 24.2614C58.2777 24.0791 57.9534 23.9879 57.5817 23.9879C57.21 23.9879 56.8857 24.0791 56.6087 24.2614C56.3317 24.4437 56.1162 24.7112 55.9624 25.0639C55.8108 25.4167 55.7351 25.8499 55.7351 26.3636C55.7351 26.8774 55.8108 27.3106 55.9624 27.6634C56.1162 28.0161 56.3317 28.2836 56.6087 28.4659C56.8857 28.6482 57.21 28.7393 57.5817 28.7393C57.9534 28.7393 58.2777 28.6482 58.5547 28.4659C58.8317 28.2836 59.0459 28.0161 59.1974 27.6634C59.3513 27.3106 59.4283 26.8774 59.4283 26.3636ZM63.6639 22.7273V30H62.1262V22.7273H63.6639ZM67.5071 30H64.929V22.7273H67.5284C68.2599 22.7273 68.8897 22.8729 69.4176 23.1641C69.9455 23.4529 70.3516 23.8684 70.6357 24.4105C70.9221 24.9527 71.0653 25.6013 71.0653 26.3565C71.0653 27.1141 70.9221 27.7652 70.6357 28.3097C70.3516 28.8542 69.9432 29.272 69.4105 29.5632C68.8802 29.8544 68.2457 30 67.5071 30ZM66.4666 28.6825H67.4432C67.8977 28.6825 68.2801 28.602 68.5902 28.4411C68.9027 28.2777 69.1371 28.0256 69.2933 27.6847C69.4519 27.3414 69.5312 26.8987 69.5312 26.3565C69.5312 25.8191 69.4519 25.38 69.2933 25.0391C69.1371 24.6982 68.9039 24.4472 68.5938 24.2862C68.2836 24.1252 67.9013 24.0447 67.4467 24.0447H66.4666V28.6825ZM75.7724 30H74.1246L76.6353 22.7273H78.6168L81.1239 30H79.4762L77.6545 24.3892H77.5977L75.7724 30ZM75.6694 27.1413H79.5614V28.3416H75.6694V27.1413ZM81.9993 30V22.7273H84.8686C85.4202 22.7273 85.8902 22.8326 86.2784 23.0433C86.6667 23.2517 86.9626 23.5417 87.1662 23.9134C87.3722 24.2827 87.4751 24.7088 87.4751 25.1918C87.4751 25.6747 87.371 26.1009 87.1626 26.4702C86.9543 26.8395 86.6525 27.1271 86.2571 27.3331C85.8641 27.5391 85.3883 27.642 84.8295 27.642H83.0007V26.4098H84.581C84.8769 26.4098 85.1207 26.3589 85.3125 26.2571C85.5066 26.1529 85.651 26.0097 85.7457 25.8274C85.8428 25.6428 85.8913 25.4309 85.8913 25.1918C85.8913 24.9503 85.8428 24.7396 85.7457 24.5597C85.651 24.3774 85.5066 24.2365 85.3125 24.1371C85.1184 24.0353 84.8722 23.9844 84.5739 23.9844H83.5369V30H81.9993ZM88.4739 30V22.7273H91.3432C91.8948 22.7273 92.3648 22.8326 92.753 23.0433C93.1413 23.2517 93.4372 23.5417 93.6408 23.9134C93.8468 24.2827 93.9498 24.7088 93.9498 25.1918C93.9498 25.6747 93.8456 26.1009 93.6373 26.4702C93.4289 26.8395 93.1271 27.1271 92.7317 27.3331C92.3387 27.5391 91.8629 27.642 91.3042 27.642H89.4753V26.4098H91.0556C91.3515 26.4098 91.5953 26.3589 91.7871 26.2571C91.9812 26.1529 92.1257 26.0097 92.2203 25.8274C92.3174 25.6428 92.3659 25.4309 92.3659 25.1918C92.3659 24.9503 92.3174 24.7396 92.2203 24.5597C92.1257 24.3774 91.9812 24.2365 91.7871 24.1371C91.593 24.0353 91.3468 23.9844 91.0485 23.9844H90.0115V30H88.4739Z" fill="white"/>
<rect x="0.5" y="0.5" width="134" height="39" rx="4.5" stroke="#A6A6A6"/>
</svg>
