<svg width="26" height="26" viewBox="0 0 26 26" fill="none" xmlns="http://www.w3.org/2000/svg">
<path fill-rule="evenodd" clip-rule="evenodd" d="M21.2136 23.337C19.7426 24.3841 17.9432 25 16 25C11.0294 25 7 20.9706 7 16C7 11.0294 11.0294 7 16 7C20.9706 7 25 11.0294 25 16C25 17.9442 24.3835 19.7445 23.3353 21.2159L24.0465 21.9385C25.2742 20.2779 26 18.2237 26 16C26 10.4772 21.5228 6 16 6C10.4772 6 6 10.4772 6 16C6 21.5228 10.4772 26 16 26C18.2168 26 20.2652 25.2787 21.9231 24.0579L21.2136 23.337Z" fill="black"/>
<circle cx="16" cy="16" r="1.5" stroke="black"/>
<line x1="13.3536" y1="12.6464" x2="15.3536" y2="14.6464" stroke="black"/>
<line x1="21.3536" y1="11.3536" x2="17.3536" y2="15.3536" stroke="black"/>
<line x1="15.5" y1="8" x2="15.5" y2="11" stroke="black"/>
<line x1="15.5" y1="21" x2="15.5" y2="24" stroke="black"/>
<line x1="8" y1="15.5" x2="11" y2="15.5" stroke="black"/>
<line x1="3" y1="10.5" x2="8" y2="10.5" stroke="black"/>
<line y1="12.5" x2="7" y2="12.5" stroke="black"/>
<line x1="1" y1="15.5" x2="7" y2="15.5" stroke="black"/>
<line x1="2" y1="18.5" x2="7" y2="18.5" stroke="black"/>
<line x1="21" y1="15.5" x2="24" y2="15.5" stroke="black"/>
<rect x="12.5" y="0.5" width="7" height="3" rx="1.5" stroke="black"/>
<line x1="14.5" y1="4" x2="14.5" y2="7" stroke="black"/>
<line x1="17.5" y1="4" x2="17.5" y2="7" stroke="black"/>
</svg>
