<svg width="16" height="16" viewBox="0 0 16 16" fill="none" xmlns="http://www.w3.org/2000/svg">
<path d="M14.8293 3.2H11.1182C11.3643 2.8652 11.5122 2.4504 11.5122 2C11.5122 0.8972 10.6369 0 9.56098 0C8.92234 0 8.35629 0.3176 8 0.8052C7.6439 0.3176 7.07766 0 6.43902 0C5.36312 0 4.4878 0.8972 4.4878 2C4.4878 2.4504 4.63571 2.8652 4.88176 3.2H1.17073C0.525073 3.2 0 3.7382 0 4.4V6C0 6.5214 0.326439 6.9648 0.780488 7.13V14.8C0.780488 15.4618 1.30556 16 1.95122 16H14.0488C14.6944 16 15.2195 15.4618 15.2195 14.8V7.13C15.6736 6.9648 16 6.5214 16 6V4.4C16 3.7382 15.4749 3.2 14.8293 3.2ZM6.82927 6.4V4H9.17073V6.4H6.82927ZM9.17073 7.2V15.2H6.82927V7.2H9.17073ZM9.56098 0.8C10.2066 0.8 10.7317 1.3382 10.7317 2C10.7317 2.6618 10.2066 3.2 9.56098 3.2H8.39024V2C8.39024 1.3382 8.91532 0.8 9.56098 0.8ZM5.26829 2C5.26829 1.3382 5.79337 0.8 6.43902 0.8C7.08468 0.8 7.60976 1.3382 7.60976 2V3.2H6.43902C5.79337 3.2 5.26829 2.6618 5.26829 2ZM0.780488 4.4C0.780488 4.1794 0.955512 4 1.17073 4H6.04878V6.4H1.17073C0.955512 6.4 0.780488 6.2206 0.780488 6V4.4ZM1.56098 14.8V7.2H6.04878V15.2H1.95122C1.736 15.2 1.56098 15.0206 1.56098 14.8ZM14.0488 15.2H9.95122V7.2H14.439V14.8C14.439 15.0206 14.264 15.2 14.0488 15.2ZM15.2195 6C15.2195 6.2206 15.0445 6.4 14.8293 6.4H9.95122V4H14.8293C15.0445 4 15.2195 4.1794 15.2195 4.4V6Z" fill="#c10a31"/>
</svg>
