<svg width="211" height="48" viewBox="0 0 211 48" fill="none" xmlns="http://www.w3.org/2000/svg">
    <g filter="url(#filter0_d_914_1912)">
        <rect x="48.5" y="0.5" width="158" height="39" rx="1.5" stroke="#35795E" shape-rendering="crispEdges"/>
    </g>
    <path d="M60.016 16.8V20.808H64.728V22.072H60.016V27H58.464V15.536H65.528V16.8H60.016ZM69.8878 18.768C70.4798 18.768 71.0131 18.8667 71.4878 19.064C71.9624 19.2613 72.3678 19.5413 72.7038 19.904C73.0398 20.2667 73.2958 20.7067 73.4718 21.224C73.6531 21.736 73.7438 22.3093 73.7438 22.944C73.7438 23.584 73.6531 24.16 73.4718 24.672C73.2958 25.184 73.0398 25.6213 72.7038 25.984C72.3678 26.3467 71.9624 26.6267 71.4878 26.824C71.0131 27.016 70.4798 27.112 69.8878 27.112C69.2904 27.112 68.7518 27.016 68.2718 26.824C67.7971 26.6267 67.3918 26.3467 67.0558 25.984C66.7198 25.6213 66.4611 25.184 66.2798 24.672C66.1038 24.16 66.0158 23.584 66.0158 22.944C66.0158 22.3093 66.1038 21.736 66.2798 21.224C66.4611 20.7067 66.7198 20.2667 67.0558 19.904C67.3918 19.5413 67.7971 19.2613 68.2718 19.064C68.7518 18.8667 69.2904 18.768 69.8878 18.768ZM69.8878 26C70.6878 26 71.2851 25.7333 71.6798 25.2C72.0744 24.6613 72.2718 23.912 72.2718 22.952C72.2718 21.9867 72.0744 21.2347 71.6798 20.696C71.2851 20.1573 70.6878 19.888 69.8878 19.888C69.4824 19.888 69.1278 19.9573 68.8238 20.096C68.5251 20.2347 68.2744 20.4347 68.0718 20.696C67.8744 20.9573 67.7251 21.28 67.6238 21.664C67.5278 22.0427 67.4798 22.472 67.4798 22.952C67.4798 23.912 67.6771 24.6613 68.0718 25.2C68.4718 25.7333 69.0771 26 69.8878 26ZM77.0219 15.216V27H75.5979V15.216H77.0219ZM80.8031 15.216V27H79.3791V15.216H80.8031ZM86.5284 18.768C87.1204 18.768 87.6537 18.8667 88.1284 19.064C88.603 19.2613 89.0084 19.5413 89.3444 19.904C89.6804 20.2667 89.9364 20.7067 90.1124 21.224C90.2937 21.736 90.3844 22.3093 90.3844 22.944C90.3844 23.584 90.2937 24.16 90.1124 24.672C89.9364 25.184 89.6804 25.6213 89.3444 25.984C89.0084 26.3467 88.603 26.6267 88.1284 26.824C87.6537 27.016 87.1204 27.112 86.5284 27.112C85.931 27.112 85.3924 27.016 84.9124 26.824C84.4377 26.6267 84.0324 26.3467 83.6964 25.984C83.3604 25.6213 83.1017 25.184 82.9204 24.672C82.7444 24.16 82.6564 23.584 82.6564 22.944C82.6564 22.3093 82.7444 21.736 82.9204 21.224C83.1017 20.7067 83.3604 20.2667 83.6964 19.904C84.0324 19.5413 84.4377 19.2613 84.9124 19.064C85.3924 18.8667 85.931 18.768 86.5284 18.768ZM86.5284 26C87.3284 26 87.9257 25.7333 88.3204 25.2C88.715 24.6613 88.9124 23.912 88.9124 22.952C88.9124 21.9867 88.715 21.2347 88.3204 20.696C87.9257 20.1573 87.3284 19.888 86.5284 19.888C86.123 19.888 85.7684 19.9573 85.4644 20.096C85.1657 20.2347 84.915 20.4347 84.7124 20.696C84.515 20.9573 84.3657 21.28 84.2644 21.664C84.1684 22.0427 84.1204 22.472 84.1204 22.952C84.1204 23.912 84.3177 24.6613 84.7124 25.2C85.1124 25.7333 85.7177 26 86.5284 26ZM103.242 18.896L100.618 27H99.4895C99.3508 27 99.2548 26.9093 99.2015 26.728L97.4095 21.232C97.3668 21.1093 97.3322 20.9867 97.3055 20.864C97.2788 20.736 97.2522 20.6107 97.2255 20.488C97.1988 20.6107 97.1722 20.736 97.1455 20.864C97.1188 20.9867 97.0842 21.112 97.0415 21.24L95.2175 26.728C95.1695 26.9093 95.0628 27 94.8975 27H93.8255L91.2015 18.896H92.3215C92.4335 18.896 92.5268 18.9253 92.6015 18.984C92.6815 19.0427 92.7348 19.112 92.7615 19.192L94.3135 24.408C94.4042 24.792 94.4762 25.1547 94.5295 25.496C94.5775 25.32 94.6255 25.1413 94.6735 24.96C94.7268 24.7787 94.7828 24.5947 94.8415 24.408L96.5535 19.16C96.5802 19.08 96.6255 19.0133 96.6895 18.96C96.7588 18.9067 96.8415 18.88 96.9375 18.88H97.5615C97.6682 18.88 97.7562 18.9067 97.8255 18.96C97.8948 19.0133 97.9428 19.08 97.9695 19.16L99.6415 24.408C99.7002 24.5947 99.7535 24.7787 99.8015 24.96C99.8495 25.1413 99.8948 25.32 99.9375 25.496C99.9642 25.32 99.9962 25.144 100.034 24.968C100.076 24.7867 100.122 24.6 100.17 24.408L101.754 19.192C101.78 19.1067 101.831 19.0373 101.906 18.984C101.98 18.9253 102.068 18.896 102.17 18.896H103.242ZM111.81 18.768C112.402 18.768 112.935 18.8667 113.41 19.064C113.884 19.2613 114.29 19.5413 114.626 19.904C114.962 20.2667 115.218 20.7067 115.394 21.224C115.575 21.736 115.666 22.3093 115.666 22.944C115.666 23.584 115.575 24.16 115.394 24.672C115.218 25.184 114.962 25.6213 114.626 25.984C114.29 26.3467 113.884 26.6267 113.41 26.824C112.935 27.016 112.402 27.112 111.81 27.112C111.212 27.112 110.674 27.016 110.194 26.824C109.719 26.6267 109.314 26.3467 108.978 25.984C108.642 25.6213 108.383 25.184 108.202 24.672C108.026 24.16 107.938 23.584 107.938 22.944C107.938 22.3093 108.026 21.736 108.202 21.224C108.383 20.7067 108.642 20.2667 108.978 19.904C109.314 19.5413 109.719 19.2613 110.194 19.064C110.674 18.8667 111.212 18.768 111.81 18.768ZM111.81 26C112.61 26 113.207 25.7333 113.602 25.2C113.996 24.6613 114.194 23.912 114.194 22.952C114.194 21.9867 113.996 21.2347 113.602 20.696C113.207 20.1573 112.61 19.888 111.81 19.888C111.404 19.888 111.05 19.9573 110.746 20.096C110.447 20.2347 110.196 20.4347 109.994 20.696C109.796 20.9573 109.647 21.28 109.546 21.664C109.45 22.0427 109.402 22.472 109.402 22.952C109.402 23.912 109.599 24.6613 109.994 25.2C110.394 25.7333 110.999 26 111.81 26ZM118.816 20.072C118.992 19.8747 119.178 19.696 119.376 19.536C119.573 19.376 119.781 19.24 120 19.128C120.224 19.0107 120.458 18.9227 120.704 18.864C120.954 18.8 121.224 18.768 121.512 18.768C121.954 18.768 122.344 18.8427 122.68 18.992C123.021 19.136 123.304 19.344 123.528 19.616C123.757 19.8827 123.93 20.2053 124.048 20.584C124.165 20.9627 124.224 21.3813 124.224 21.84V27H122.792V21.84C122.792 21.2267 122.65 20.752 122.368 20.416C122.09 20.0747 121.666 19.904 121.096 19.904C120.674 19.904 120.28 20.0053 119.912 20.208C119.549 20.4107 119.213 20.6853 118.904 21.032V27H117.472V18.896H118.328C118.53 18.896 118.656 18.9947 118.704 19.192L118.816 20.072ZM132.375 27H130.823V15.536H132.375V27ZM136.191 20.072C136.367 19.8747 136.553 19.696 136.751 19.536C136.948 19.376 137.156 19.24 137.375 19.128C137.599 19.0107 137.833 18.9227 138.079 18.864C138.329 18.8 138.599 18.768 138.887 18.768C139.329 18.768 139.719 18.8427 140.055 18.992C140.396 19.136 140.679 19.344 140.903 19.616C141.132 19.8827 141.305 20.2053 141.423 20.584C141.54 20.9627 141.599 21.3813 141.599 21.84V27H140.167V21.84C140.167 21.2267 140.025 20.752 139.743 20.416C139.465 20.0747 139.041 19.904 138.471 19.904C138.049 19.904 137.655 20.0053 137.287 20.208C136.924 20.4107 136.588 20.6853 136.279 21.032V27H134.847V18.896H135.703C135.905 18.896 136.031 18.9947 136.079 19.192L136.191 20.072ZM148.489 20.232C148.425 20.3493 148.326 20.408 148.193 20.408C148.113 20.408 148.022 20.3787 147.921 20.32C147.819 20.2613 147.694 20.1973 147.545 20.128C147.401 20.0533 147.227 19.9867 147.025 19.928C146.822 19.864 146.582 19.832 146.305 19.832C146.065 19.832 145.849 19.864 145.657 19.928C145.465 19.9867 145.299 20.0693 145.161 20.176C145.027 20.2827 144.923 20.408 144.849 20.552C144.779 20.6907 144.745 20.8427 144.745 21.008C144.745 21.216 144.803 21.3893 144.921 21.528C145.043 21.6667 145.203 21.7867 145.401 21.888C145.598 21.9893 145.822 22.08 146.073 22.16C146.323 22.2347 146.579 22.3173 146.841 22.408C147.107 22.4933 147.366 22.5893 147.617 22.696C147.867 22.8027 148.091 22.936 148.289 23.096C148.486 23.256 148.643 23.4533 148.761 23.688C148.883 23.9173 148.945 24.1947 148.945 24.52C148.945 24.8933 148.878 25.24 148.745 25.56C148.611 25.8747 148.414 26.1493 148.153 26.384C147.891 26.6133 147.571 26.7947 147.193 26.928C146.814 27.0613 146.377 27.128 145.881 27.128C145.315 27.128 144.803 27.0373 144.345 26.856C143.886 26.6693 143.497 26.432 143.177 26.144L143.513 25.6C143.555 25.5307 143.606 25.4773 143.665 25.44C143.723 25.4027 143.798 25.384 143.889 25.384C143.985 25.384 144.086 25.4213 144.193 25.496C144.299 25.5707 144.427 25.6533 144.577 25.744C144.731 25.8347 144.918 25.9173 145.137 25.992C145.355 26.0667 145.627 26.104 145.953 26.104C146.23 26.104 146.473 26.0693 146.681 26C146.889 25.9253 147.062 25.8267 147.201 25.704C147.339 25.5813 147.441 25.44 147.505 25.28C147.574 25.12 147.609 24.9493 147.609 24.768C147.609 24.544 147.547 24.36 147.425 24.216C147.307 24.0667 147.15 23.9413 146.953 23.84C146.755 23.7333 146.529 23.6427 146.273 23.568C146.022 23.488 145.763 23.4053 145.497 23.32C145.235 23.2347 144.977 23.1387 144.721 23.032C144.47 22.92 144.246 22.7813 144.049 22.616C143.851 22.4507 143.691 22.248 143.569 22.008C143.451 21.7627 143.393 21.4667 143.393 21.12C143.393 20.8107 143.457 20.5147 143.585 20.232C143.713 19.944 143.899 19.6933 144.145 19.48C144.39 19.2613 144.691 19.088 145.049 18.96C145.406 18.832 145.814 18.768 146.273 18.768C146.806 18.768 147.283 18.8533 147.705 19.024C148.131 19.1893 148.499 19.4187 148.809 19.712L148.489 20.232ZM153.179 27.128C152.539 27.128 152.045 26.9493 151.699 26.592C151.357 26.2347 151.187 25.72 151.187 25.048V20.088H150.211C150.125 20.088 150.053 20.064 149.995 20.016C149.936 19.9627 149.907 19.8827 149.907 19.776V19.208L151.235 19.04L151.562 16.536C151.579 16.456 151.613 16.392 151.667 16.344C151.725 16.2907 151.8 16.264 151.891 16.264H152.611V19.056H154.955V20.088H152.611V24.952C152.611 25.2933 152.693 25.5467 152.859 25.712C153.024 25.8773 153.237 25.96 153.499 25.96C153.648 25.96 153.776 25.9413 153.883 25.904C153.995 25.8613 154.091 25.816 154.171 25.768C154.251 25.72 154.317 25.6773 154.371 25.64C154.429 25.5973 154.48 25.576 154.523 25.576C154.597 25.576 154.664 25.6213 154.723 25.712L155.139 26.392C154.893 26.6213 154.597 26.8027 154.251 26.936C153.904 27.064 153.547 27.128 153.179 27.128ZM160.817 23.352C160.161 23.3733 159.601 23.4267 159.137 23.512C158.678 23.592 158.302 23.6987 158.009 23.832C157.721 23.9653 157.51 24.1227 157.377 24.304C157.249 24.4853 157.185 24.688 157.185 24.912C157.185 25.1253 157.22 25.3093 157.289 25.464C157.358 25.6187 157.452 25.7467 157.569 25.848C157.692 25.944 157.833 26.016 157.993 26.064C158.158 26.1067 158.334 26.128 158.521 26.128C158.772 26.128 159.001 26.104 159.209 26.056C159.417 26.0027 159.612 25.928 159.793 25.832C159.98 25.736 160.156 25.6213 160.321 25.488C160.492 25.3547 160.657 25.2027 160.817 25.032V23.352ZM156.217 20.04C156.665 19.608 157.148 19.2853 157.665 19.072C158.182 18.8587 158.756 18.752 159.385 18.752C159.838 18.752 160.241 18.8267 160.593 18.976C160.945 19.1253 161.241 19.3333 161.481 19.6C161.721 19.8667 161.902 20.1893 162.025 20.568C162.148 20.9467 162.209 21.3627 162.209 21.816V27H161.577C161.438 27 161.332 26.9787 161.257 26.936C161.182 26.888 161.124 26.7973 161.081 26.664L160.921 25.896C160.708 26.0933 160.5 26.2693 160.297 26.424C160.094 26.5733 159.881 26.7013 159.657 26.808C159.433 26.9093 159.193 26.9867 158.937 27.04C158.686 27.0987 158.406 27.128 158.097 27.128C157.782 27.128 157.486 27.0853 157.209 27C156.932 26.9093 156.689 26.776 156.481 26.6C156.278 26.424 156.116 26.2027 155.993 25.936C155.876 25.664 155.817 25.344 155.817 24.976C155.817 24.656 155.905 24.3493 156.081 24.056C156.257 23.7573 156.542 23.4933 156.937 23.264C157.332 23.0347 157.846 22.848 158.481 22.704C159.116 22.5547 159.894 22.4693 160.817 22.448V21.816C160.817 21.1867 160.681 20.712 160.409 20.392C160.137 20.0667 159.74 19.904 159.217 19.904C158.865 19.904 158.569 19.9493 158.329 20.04C158.094 20.1253 157.889 20.224 157.713 20.336C157.542 20.4427 157.393 20.5413 157.265 20.632C157.142 20.7173 157.02 20.76 156.897 20.76C156.801 20.76 156.718 20.736 156.649 20.688C156.58 20.6347 156.521 20.5707 156.473 20.496L156.217 20.04ZM167.202 23.04C167.49 23.04 167.743 23 167.962 22.92C168.181 22.84 168.365 22.728 168.514 22.584C168.663 22.44 168.775 22.2693 168.85 22.072C168.925 21.8693 168.962 21.648 168.962 21.408C168.962 20.912 168.81 20.5173 168.506 20.224C168.207 19.9307 167.773 19.784 167.202 19.784C166.626 19.784 166.186 19.9307 165.882 20.224C165.583 20.5173 165.434 20.912 165.434 21.408C165.434 21.648 165.471 21.8693 165.546 22.072C165.626 22.2693 165.741 22.44 165.89 22.584C166.039 22.728 166.223 22.84 166.442 22.92C166.661 23 166.914 23.04 167.202 23.04ZM169.77 27.44C169.77 27.2427 169.714 27.0827 169.602 26.96C169.49 26.8373 169.338 26.7413 169.146 26.672C168.959 26.6027 168.741 26.5547 168.49 26.528C168.239 26.496 167.973 26.472 167.69 26.456C167.413 26.44 167.13 26.424 166.842 26.408C166.554 26.392 166.277 26.3653 166.01 26.328C165.711 26.4667 165.466 26.6427 165.274 26.856C165.087 27.064 164.994 27.3093 164.994 27.592C164.994 27.7733 165.039 27.9413 165.13 28.096C165.226 28.256 165.37 28.392 165.562 28.504C165.754 28.6213 165.994 28.712 166.282 28.776C166.575 28.8453 166.919 28.88 167.314 28.88C167.698 28.88 168.042 28.8453 168.346 28.776C168.65 28.7067 168.906 28.608 169.114 28.48C169.327 28.352 169.49 28.2 169.602 28.024C169.714 27.848 169.77 27.6533 169.77 27.44ZM171.218 19.216V19.744C171.218 19.92 171.106 20.032 170.882 20.08L169.962 20.2C170.143 20.552 170.234 20.9413 170.234 21.368C170.234 21.7627 170.157 22.1227 170.002 22.448C169.853 22.768 169.645 23.0427 169.378 23.272C169.111 23.5013 168.791 23.6773 168.418 23.8C168.045 23.9227 167.639 23.984 167.202 23.984C166.823 23.984 166.466 23.9387 166.13 23.848C165.959 23.9547 165.829 24.0693 165.738 24.192C165.647 24.3093 165.602 24.4293 165.602 24.552C165.602 24.744 165.679 24.8907 165.834 24.992C165.994 25.088 166.202 25.1573 166.458 25.2C166.714 25.2427 167.005 25.2693 167.33 25.28C167.661 25.2907 167.997 25.3093 168.338 25.336C168.685 25.3573 169.021 25.3973 169.346 25.456C169.677 25.5147 169.97 25.6107 170.226 25.744C170.482 25.8773 170.687 26.0613 170.842 26.296C171.002 26.5307 171.082 26.8347 171.082 27.208C171.082 27.5547 170.994 27.8907 170.818 28.216C170.647 28.5413 170.399 28.8293 170.074 29.08C169.749 29.336 169.349 29.5387 168.874 29.688C168.405 29.8427 167.874 29.92 167.282 29.92C166.69 29.92 166.173 29.8613 165.73 29.744C165.287 29.6267 164.919 29.4693 164.626 29.272C164.333 29.0747 164.111 28.8453 163.962 28.584C163.818 28.328 163.746 28.0587 163.746 27.776C163.746 27.376 163.871 27.0373 164.122 26.76C164.373 26.4827 164.717 26.2613 165.154 26.096C164.914 25.9893 164.722 25.848 164.578 25.672C164.439 25.4907 164.37 25.248 164.37 24.944C164.37 24.8267 164.391 24.7067 164.434 24.584C164.477 24.456 164.541 24.3307 164.626 24.208C164.717 24.08 164.826 23.96 164.954 23.848C165.082 23.736 165.231 23.6373 165.402 23.552C165.002 23.328 164.69 23.032 164.466 22.664C164.242 22.2907 164.13 21.8587 164.13 21.368C164.13 20.9733 164.205 20.616 164.354 20.296C164.509 19.9707 164.722 19.696 164.994 19.472C165.266 19.2427 165.589 19.0667 165.962 18.944C166.341 18.8213 166.754 18.76 167.202 18.76C167.554 18.76 167.882 18.8 168.186 18.88C168.49 18.9547 168.767 19.0667 169.018 19.216H171.218ZM174.043 20.52C174.299 19.9653 174.613 19.5333 174.987 19.224C175.36 18.9093 175.816 18.752 176.355 18.752C176.525 18.752 176.688 18.7707 176.843 18.808C177.003 18.8453 177.144 18.904 177.267 18.984L177.163 20.048C177.131 20.1813 177.051 20.248 176.923 20.248C176.848 20.248 176.739 20.232 176.595 20.2C176.451 20.168 176.288 20.152 176.107 20.152C175.851 20.152 175.621 20.1893 175.419 20.264C175.221 20.3387 175.043 20.4507 174.883 20.6C174.728 20.744 174.587 20.9253 174.459 21.144C174.336 21.3573 174.224 21.6027 174.123 21.88V27H172.691V18.896H173.507C173.661 18.896 173.768 18.9253 173.827 18.984C173.885 19.0427 173.925 19.144 173.947 19.288L174.043 20.52ZM182.786 23.352C182.13 23.3733 181.57 23.4267 181.106 23.512C180.647 23.592 180.271 23.6987 179.978 23.832C179.69 23.9653 179.479 24.1227 179.346 24.304C179.218 24.4853 179.154 24.688 179.154 24.912C179.154 25.1253 179.188 25.3093 179.258 25.464C179.327 25.6187 179.42 25.7467 179.538 25.848C179.66 25.944 179.802 26.016 179.962 26.064C180.127 26.1067 180.303 26.128 180.49 26.128C180.74 26.128 180.97 26.104 181.178 26.056C181.386 26.0027 181.58 25.928 181.762 25.832C181.948 25.736 182.124 25.6213 182.29 25.488C182.46 25.3547 182.626 25.2027 182.786 25.032V23.352ZM178.186 20.04C178.634 19.608 179.116 19.2853 179.634 19.072C180.151 18.8587 180.724 18.752 181.354 18.752C181.807 18.752 182.21 18.8267 182.562 18.976C182.914 19.1253 183.21 19.3333 183.45 19.6C183.69 19.8667 183.871 20.1893 183.994 20.568C184.116 20.9467 184.178 21.3627 184.178 21.816V27H183.546C183.407 27 183.3 26.9787 183.226 26.936C183.151 26.888 183.092 26.7973 183.05 26.664L182.89 25.896C182.676 26.0933 182.468 26.2693 182.266 26.424C182.063 26.5733 181.85 26.7013 181.626 26.808C181.402 26.9093 181.162 26.9867 180.906 27.04C180.655 27.0987 180.375 27.128 180.066 27.128C179.751 27.128 179.455 27.0853 179.178 27C178.9 26.9093 178.658 26.776 178.45 26.6C178.247 26.424 178.084 26.2027 177.962 25.936C177.844 25.664 177.786 25.344 177.786 24.976C177.786 24.656 177.874 24.3493 178.05 24.056C178.226 23.7573 178.511 23.4933 178.906 23.264C179.3 23.0347 179.815 22.848 180.45 22.704C181.084 22.5547 181.863 22.4693 182.786 22.448V21.816C182.786 21.1867 182.65 20.712 182.378 20.392C182.106 20.0667 181.708 19.904 181.186 19.904C180.834 19.904 180.538 19.9493 180.298 20.04C180.063 20.1253 179.858 20.224 179.682 20.336C179.511 20.4427 179.362 20.5413 179.234 20.632C179.111 20.7173 178.988 20.76 178.866 20.76C178.77 20.76 178.687 20.736 178.618 20.688C178.548 20.6347 178.49 20.5707 178.442 20.496L178.186 20.04ZM186.347 27V18.896H187.203C187.405 18.896 187.531 18.9947 187.579 19.192L187.683 20.024C187.981 19.656 188.317 19.3547 188.691 19.12C189.064 18.8853 189.496 18.768 189.987 18.768C190.531 18.768 190.971 18.92 191.307 19.224C191.648 19.528 191.893 19.9387 192.043 20.456C192.16 20.1627 192.309 19.9093 192.491 19.696C192.677 19.4827 192.885 19.3067 193.115 19.168C193.344 19.0293 193.587 18.928 193.843 18.864C194.104 18.8 194.368 18.768 194.635 18.768C195.061 18.768 195.44 18.8373 195.771 18.976C196.107 19.1093 196.389 19.3067 196.619 19.568C196.853 19.8293 197.032 20.152 197.155 20.536C197.277 20.9147 197.339 21.3493 197.339 21.84V27H195.907V21.84C195.907 21.2053 195.768 20.7253 195.491 20.4C195.213 20.0693 194.813 19.904 194.291 19.904C194.056 19.904 193.832 19.9467 193.619 20.032C193.411 20.112 193.227 20.232 193.067 20.392C192.907 20.552 192.779 20.7547 192.683 21C192.592 21.24 192.547 21.52 192.547 21.84V27H191.115V21.84C191.115 21.1893 190.984 20.704 190.723 20.384C190.461 20.064 190.08 19.904 189.579 19.904C189.227 19.904 188.901 20 188.603 20.192C188.304 20.3787 188.029 20.6347 187.779 20.96V27H186.347Z" fill="#35795E"/>
    <rect width="40" height="40" rx="20" fill="black"/>
    <path d="M20.0035 10.163C23.21 10.163 23.5864 10.1773 24.8537 10.2345C26.0258 10.2869 26.6595 10.4823 27.0835 10.649C27.6457 10.8682 28.0459 11.1255 28.4652 11.5447C28.8844 11.964 29.1465 12.3642 29.3609 12.9264C29.5229 13.3504 29.723 13.9841 29.7754 15.1562C29.8326 16.4235 29.8469 16.7999 29.8469 20.0064C29.8469 23.2128 29.8326 23.5892 29.7754 24.8565C29.723 26.0286 29.5276 26.6623 29.3609 27.0863C29.1417 27.6485 28.8844 28.0487 28.4652 28.468C28.0459 28.8872 27.6457 29.1493 27.0835 29.3637C26.6595 29.5257 26.0258 29.7258 24.8537 29.7782C23.5864 29.8354 23.21 29.8497 20.0035 29.8497C16.7971 29.8497 16.4207 29.8354 15.1534 29.7782C13.9813 29.7258 13.3476 29.5304 12.9236 29.3637C12.3614 29.1445 11.9612 28.8872 11.5419 28.468C11.1227 28.0487 10.8606 27.6485 10.6462 27.0863C10.4842 26.6623 10.2841 26.0286 10.2317 24.8565C10.1745 23.5892 10.1602 23.2128 10.1602 20.0064C10.1602 16.7999 10.1745 16.4235 10.2317 15.1562C10.2841 13.9841 10.4795 13.3504 10.6462 12.9264C10.8654 12.3642 11.1227 11.964 11.5419 11.5447C11.9612 11.1255 12.3614 10.8634 12.9236 10.649C13.3476 10.487 13.9813 10.2869 15.1534 10.2345C16.4207 10.1726 16.8019 10.163 20.0035 10.163ZM20.0035 8C16.7447 8 16.3349 8.01429 15.0533 8.07147C13.7764 8.12864 12.9046 8.33351 12.1422 8.6289C11.3513 8.93383 10.6843 9.34833 10.0173 10.0154C9.35029 10.6824 8.94055 11.3542 8.63086 12.1403C8.33546 12.9026 8.13059 13.7745 8.07342 15.0561C8.01625 16.333 8.00195 16.7427 8.00195 20.0016C8.00195 23.2605 8.01625 23.6702 8.07342 24.9518C8.13059 26.2287 8.33546 27.1006 8.63086 27.8677C8.93578 28.6585 9.35029 29.3256 10.0173 29.9926C10.6843 30.6596 11.3561 31.0693 12.1422 31.379C12.9046 31.6744 13.7764 31.8793 15.0581 31.9365C16.3397 31.9936 16.7447 32.0079 20.0083 32.0079C23.2719 32.0079 23.6769 31.9936 24.9586 31.9365C26.2354 31.8793 27.1073 31.6744 27.8744 31.379C28.6653 31.0741 29.3323 30.6596 29.9993 29.9926C30.6663 29.3256 31.0761 28.6538 31.3858 27.8677C31.6812 27.1053 31.886 26.2335 31.9432 24.9518C32.0004 23.6702 32.0147 23.2652 32.0147 20.0016C32.0147 16.738 32.0004 16.333 31.9432 15.0513C31.886 13.7745 31.6812 12.9026 31.3858 12.1355C31.0808 11.3446 30.6663 10.6776 29.9993 10.0106C29.3323 9.34357 28.6605 8.93383 27.8744 8.62414C27.1121 8.32875 26.2402 8.12388 24.9586 8.0667C23.6722 8.01429 23.2624 8 20.0035 8Z" fill="white"/>
    <path d="M20.0031 13.8412C16.6013 13.8412 13.8379 16.5998 13.8379 20.0064C13.8379 23.4129 16.5965 26.1715 20.0031 26.1715C23.4096 26.1715 26.1682 23.4129 26.1682 20.0064C26.1682 16.5998 23.4096 13.8412 20.0031 13.8412ZM20.0031 24.0037C17.7924 24.0037 16.0009 22.2123 16.0009 20.0016C16.0009 17.7909 17.7924 15.9995 20.0031 15.9995C22.2138 15.9995 24.0052 17.7909 24.0052 20.0016C24.0052 22.2123 22.2138 24.0037 20.0031 24.0037Z" fill="white"/>
    <path d="M26.4115 15.0323C27.2062 15.0323 27.8504 14.3881 27.8504 13.5934C27.8504 12.7988 27.2062 12.1546 26.4115 12.1546C25.6169 12.1546 24.9727 12.7988 24.9727 13.5934C24.9727 14.3881 25.6169 15.0323 26.4115 15.0323Z" fill="white"/>
    <defs>
        <filter id="filter0_d_914_1912" x="44" y="0" width="167" height="48" filterUnits="userSpaceOnUse" color-interpolation-filters="sRGB">
            <feFlood flood-opacity="0" result="BackgroundImageFix"/>
            <feColorMatrix in="SourceAlpha" type="matrix" values="0 0 0 0 0 0 0 0 0 0 0 0 0 0 0 0 0 0 127 0" result="hardAlpha"/>
            <feOffset dy="4"/>
            <feGaussianBlur stdDeviation="2"/>
            <feComposite in2="hardAlpha" operator="out"/>
            <feColorMatrix type="matrix" values="0 0 0 0 0 0 0 0 0 0 0 0 0 0 0 0 0 0 0.25 0"/>
            <feBlend mode="normal" in2="BackgroundImageFix" result="effect1_dropShadow_914_1912"/>
            <feBlend mode="normal" in="SourceGraphic" in2="effect1_dropShadow_914_1912" result="shape"/>
        </filter>
    </defs>
</svg>
