<svg width="12" height="12" viewBox="0 0 12 12" fill="none" xmlns="http://www.w3.org/2000/svg">
<path d="M10.911 0.00750731C10.8985 0.00650025 10.888 0 10.875 0H5.50003C4.67303 0 4.00003 0.673004 4.00003 1.5V1.99997C4.00003 2.276 4.22397 2.50003 4.5 2.50003C4.77603 2.50003 4.99997 2.276 4.99997 1.99997V1.5C4.99997 1.22452 5.22446 1.00003 5.50003 1.00003H7.8295L7.67697 1.05103C7.27203 1.19101 7.00003 1.57251 7.00003 1.99997V9.49997H5.50003C5.22446 9.49997 4.99997 9.27548 4.99997 9V7.99997C4.99997 7.72403 4.77603 7.5 4.5 7.5C4.22397 7.5 4.00003 7.72403 4.00003 7.99997V9C4.00003 9.827 4.67303 10.5 5.50003 10.5H7.00003V11C7.00003 11.5515 7.44846 12 7.99997 12C8.10699 12 8.20853 11.9845 8.31848 11.9505L11.3225 10.949C11.728 10.809 12 10.4275 12 10V1.00003C12 0.417023 11.4975 -0.0400085 10.911 0.00750731Z" fill="#FCEDCA"/>
<path d="M5.35345 4.64649L3.35349 2.64652C3.21048 2.50351 2.99551 2.46048 2.80847 2.53803C2.62198 2.61548 2.50003 2.79804 2.50003 3V4.5H0.499969C0.22403 4.5 0 4.72403 0 4.99997C0 5.276 0.22403 5.50003 0.499969 5.50003H2.50003V7.00003C2.50003 7.202 2.62198 7.38446 2.80847 7.46201C2.99551 7.53946 3.21048 7.49652 3.35349 7.35352L5.35345 5.35346C5.54901 5.15799 5.54901 4.84204 5.35345 4.64649Z" fill="#FCEDCA"/>
</svg>
