<svg width="27" height="27" viewBox="0 0 27 27" fill="none" xmlns="http://www.w3.org/2000/svg">
<path d="M12.325 13.5775C12.325 14.5225 12.2225 15.345 12.0175 16.045C11.8175 16.74 11.5375 17.315 11.1775 17.77C10.8225 18.225 10.4 18.565 9.91 18.79C9.425 19.01 8.9 19.12 8.335 19.12C7.77 19.12 7.245 19.01 6.76 18.79C6.28 18.565 5.8625 18.225 5.5075 17.77C5.1525 17.315 4.875 16.74 4.675 16.045C4.475 15.345 4.375 14.5225 4.375 13.5775C4.375 12.6275 4.475 11.805 4.675 11.11C4.875 10.415 5.1525 9.84 5.5075 9.385C5.8625 8.93 6.28 8.5925 6.76 8.3725C7.245 8.1475 7.77 8.035 8.335 8.035C8.9 8.035 9.425 8.1475 9.91 8.3725C10.4 8.5925 10.8225 8.93 11.1775 9.385C11.5375 9.84 11.8175 10.415 12.0175 11.11C12.2225 11.805 12.325 12.6275 12.325 13.5775ZM10.4125 13.5775C10.4125 12.7925 10.355 12.1425 10.24 11.6275C10.125 11.1125 9.97 10.7025 9.775 10.3975C9.585 10.0925 9.365 9.88 9.115 9.76C8.865 9.635 8.605 9.5725 8.335 9.5725C8.07 9.5725 7.8125 9.635 7.5625 9.76C7.3175 9.88 7.1 10.0925 6.91 10.3975C6.72 10.7025 6.5675 11.1125 6.4525 11.6275C6.3425 12.1425 6.2875 12.7925 6.2875 13.5775C6.2875 14.3625 6.3425 15.0125 6.4525 15.5275C6.5675 16.0425 6.72 16.4525 6.91 16.7575C7.1 17.0625 7.3175 17.2775 7.5625 17.4025C7.8125 17.5225 8.07 17.5825 8.335 17.5825C8.605 17.5825 8.865 17.5225 9.115 17.4025C9.365 17.2775 9.585 17.0625 9.775 16.7575C9.97 16.4525 10.125 16.0425 10.24 15.5275C10.355 15.0125 10.4125 14.3625 10.4125 13.5775ZM18.2887 10.78C18.2887 11.19 18.2187 11.56 18.0787 11.89C17.9437 12.22 17.7612 12.5025 17.5312 12.7375C17.3012 12.9675 17.0337 13.145 16.7287 13.27C16.4237 13.395 16.1062 13.4575 15.7762 13.4575C15.4162 13.4575 15.0837 13.395 14.7787 13.27C14.4737 13.145 14.2087 12.9675 13.9837 12.7375C13.7637 12.5025 13.5912 12.22 13.4662 11.89C13.3412 11.56 13.2787 11.19 13.2787 10.78C13.2787 10.36 13.3412 9.98 13.4662 9.64C13.5912 9.3 13.7637 9.0125 13.9837 8.7775C14.2087 8.5425 14.4737 8.3625 14.7787 8.2375C15.0837 8.1075 15.4162 8.0425 15.7762 8.0425C16.1362 8.0425 16.4687 8.1075 16.7737 8.2375C17.0837 8.3625 17.3512 8.5425 17.5762 8.7775C17.8012 9.0125 17.9762 9.3 18.1012 9.64C18.2262 9.98 18.2887 10.36 18.2887 10.78ZM16.8637 10.78C16.8637 10.49 16.8337 10.2475 16.7737 10.0525C16.7187 9.8575 16.6412 9.7 16.5412 9.58C16.4462 9.46 16.3312 9.375 16.1962 9.325C16.0662 9.27 15.9262 9.2425 15.7762 9.2425C15.6262 9.2425 15.4862 9.27 15.3562 9.325C15.2262 9.375 15.1137 9.46 15.0187 9.58C14.9287 9.7 14.8562 9.8575 14.8012 10.0525C14.7462 10.2475 14.7187 10.49 14.7187 10.78C14.7187 11.06 14.7462 11.295 14.8012 11.485C14.8562 11.67 14.9287 11.82 15.0187 11.935C15.1137 12.05 15.2262 12.1325 15.3562 12.1825C15.4862 12.2325 15.6262 12.2575 15.7762 12.2575C15.9262 12.2575 16.0662 12.2325 16.1962 12.1825C16.3312 12.1325 16.4462 12.05 16.5412 11.935C16.6412 11.82 16.7187 11.67 16.7737 11.485C16.8337 11.295 16.8637 11.06 16.8637 10.78ZM21.8962 8.4475C21.9612 8.3725 22.0362 8.305 22.1212 8.245C22.2112 8.185 22.3362 8.155 22.4962 8.155H23.8462L15.7912 18.7225C15.7262 18.8025 15.6487 18.87 15.5587 18.925C15.4687 18.975 15.3587 19 15.2287 19H13.8487L21.8962 8.4475ZM24.4162 16.45C24.4162 16.86 24.3462 17.23 24.2062 17.56C24.0712 17.89 23.8887 18.1725 23.6587 18.4075C23.4287 18.6375 23.1612 18.8175 22.8562 18.9475C22.5512 19.0725 22.2337 19.135 21.9037 19.135C21.5437 19.135 21.2112 19.0725 20.9062 18.9475C20.6012 18.8175 20.3362 18.6375 20.1112 18.4075C19.8912 18.1725 19.7187 17.89 19.5937 17.56C19.4687 17.23 19.4062 16.86 19.4062 16.45C19.4062 16.03 19.4687 15.65 19.5937 15.31C19.7187 14.97 19.8912 14.6825 20.1112 14.4475C20.3362 14.2125 20.6012 14.0325 20.9062 13.9075C21.2112 13.7775 21.5437 13.7125 21.9037 13.7125C22.2637 13.7125 22.5962 13.7775 22.9012 13.9075C23.2112 14.0325 23.4762 14.2125 23.6962 14.4475C23.9212 14.6825 24.0962 14.97 24.2212 15.31C24.3512 15.65 24.4162 16.03 24.4162 16.45ZM22.9837 16.45C22.9837 16.16 22.9562 15.9175 22.9012 15.7225C22.8462 15.5275 22.7687 15.37 22.6687 15.25C22.5737 15.13 22.4587 15.045 22.3237 14.995C22.1937 14.94 22.0537 14.9125 21.9037 14.9125C21.7537 14.9125 21.6137 14.94 21.4837 14.995C21.3537 15.045 21.2412 15.13 21.1462 15.25C21.0512 15.37 20.9762 15.5275 20.9212 15.7225C20.8712 15.9175 20.8462 16.16 20.8462 16.45C20.8462 16.73 20.8712 16.965 20.9212 17.155C20.9762 17.345 21.0512 17.4975 21.1462 17.6125C21.2412 17.7275 21.3537 17.81 21.4837 17.86C21.6137 17.91 21.7537 17.935 21.9037 17.935C22.0537 17.935 22.1937 17.91 22.3237 17.86C22.4587 17.81 22.5737 17.7275 22.6687 17.6125C22.7687 17.4975 22.8462 17.345 22.9012 17.155C22.9562 16.965 22.9837 16.73 22.9837 16.45Z" fill="black"/>
<circle cx="13.5" cy="13.5" r="13" stroke="black" stroke-dasharray="7 7"/>
</svg>
