<svg width="18" height="22" viewBox="0 0 18 22" fill="none" xmlns="http://www.w3.org/2000/svg">
<path d="M17.5784 10.3261L17.0501 9.55133C17.0501 9.55133 15.6414 5.16856 14.3867 3.89579C14.3867 3.89579 13.9464 1.70441 14.3867 0.68619C14.3867 0.68619 13.6162 1.12889 13.3741 1.56053C13.3741 1.56053 13.4732 0.243487 13.7153 0C13.7153 0 11.5141 0.608717 11.1949 2.29099C11.1949 2.29099 6.68247 2.54554 4.23914 4.54878C2.58824 5.89902 1.46563 7.16073 0.629169 9.47385C-0.0642086 11.3885 -0.691551 14.2993 1.74078 17.3761C4.98755 21.4711 11.338 21.9913 11.338 21.9913C11.338 21.9913 12.4826 18.7042 10.9198 16.6788C9.76415 15.1737 8.28935 11.3553 10.5896 9.72841C9.87421 8.53311 9.83019 7.205 10.1053 5.36778C9.91823 7.92439 11.1949 9.81695 11.1949 9.81695C11.7012 10.4589 12.9889 11.8977 14.5958 12.0858C14.5958 12.0858 14.8379 14.576 17.3583 13.2036C18.0076 12.8384 18.2608 11.3111 17.5784 10.3261Z" fill="#864D44"/>
</svg>
