<svg width="19" height="18" viewBox="0 0 19 18" fill="none" xmlns="http://www.w3.org/2000/svg">
<path d="M9.17275 1.12791C9.27752 0.805453 9.73371 0.805453 9.83848 1.12791L11.2448 5.45618C11.4657 6.13602 12.0992 6.5963 12.8141 6.5963H17.3651C17.7041 6.5963 17.8451 7.03017 17.5708 7.22946L13.889 9.90448C13.3107 10.3246 13.0687 11.0694 13.2896 11.7492L14.6959 16.0775C14.8007 16.4 14.4316 16.6681 14.1573 16.4688L10.4755 13.7938L10.0934 14.3197L10.4755 13.7938C9.89715 13.3736 9.11407 13.3736 8.53577 13.7938L4.85392 16.4688C4.57962 16.6681 4.21056 16.4 4.31533 16.0775L5.72167 11.7492C5.94256 11.0694 5.70057 10.3246 5.12227 9.90448L1.44042 7.22946C1.16612 7.03017 1.3071 6.5963 1.64615 6.5963H6.19716C6.91198 6.5963 7.54551 6.13602 7.76641 5.45618L9.17275 1.12791Z" stroke="#DFC548" stroke-width="1.3"/>
</svg>
