<svg width="21" height="20" viewBox="0 0 21 20" fill="none" xmlns="http://www.w3.org/2000/svg">
<path d="M9.44232 8.90395C5.88416 8.90395 5.70714 16.1059 6.2631 20C6.2631 20 4.03942 19.4435 2.37117 18.3309C0.702907 17.2183 0.147685 15.5494 0.147685 15.5494C-0.741855 11.0991 2.77077 6.49335 4.43866 4.45361L6.31223 6.32907C5.08824 4.93769 3.77795 1.77694 4.99462 0.559553C6.32893 -0.775551 8.88636 0.559553 9.04291 1.64232C10.5542 1.11585 12.5557 1.89466 13.89 2.78473C15.5579 3.89731 16.6698 3.89731 20.0056 5.0099C17.2258 8.90395 13.89 8.90395 9.44232 8.90395Z" fill="#305765"/>
</svg>
