<svg width="15" height="18" viewBox="0 0 15 18" fill="none" xmlns="http://www.w3.org/2000/svg">
<path d="M6.47932 8.62048C8.8742 8.62034 9.73589 6.22243 9.96146 4.25271C10.2393 1.82624 9.09188 0 6.47932 0C3.86709 0 2.71904 1.8261 2.99714 4.25271C3.22294 6.22243 4.08438 8.62065 6.47932 8.62048Z" fill="black"/>
<path d="M11.716 9.61848C11.793 9.61848 11.8696 9.62079 11.9456 9.62501C11.8317 9.46244 11.6997 9.31904 11.5454 9.20377C11.0852 8.86031 10.4892 8.74762 9.96232 8.54058C9.70584 8.43984 9.47619 8.33977 9.26059 8.22583C8.53293 9.02383 7.58403 9.44126 6.47903 9.44138C5.3744 9.44138 4.42559 9.02394 3.69801 8.22583C3.48241 8.3398 3.2527 8.43984 2.99628 8.54058C2.4694 8.74765 1.87344 8.86031 1.41323 9.20377C0.617376 9.79778 0.411701 11.1341 0.2501 12.0456C0.116735 12.798 0.0271392 13.5659 0.000988617 14.3302C-0.0192705 14.9222 0.273027 15.0052 0.768305 15.184C1.38844 15.4076 2.02876 15.5737 2.67338 15.7098C3.9183 15.9727 5.20154 16.1747 6.47926 16.1837C7.09837 16.1793 7.71873 16.1293 8.33542 16.0494C7.8788 15.3878 7.61099 14.5864 7.61099 13.7235C7.61102 11.4599 9.45248 9.61848 11.716 9.61848Z" fill="black"/>
<path d="M11.716 10.4397C9.90232 10.4397 8.43197 11.9101 8.43197 13.7237C8.43197 15.5373 9.90229 17.0077 11.716 17.0077C13.5296 17.0077 15 15.5373 15 13.7237C15 11.91 13.5296 10.4397 11.716 10.4397ZM13.1527 14.2871H12.2794V15.1604C12.2794 15.4716 12.0272 15.7239 11.716 15.7239C11.4048 15.7239 11.1525 15.4716 11.1525 15.1604V14.2871H10.2792C9.96805 14.2871 9.71577 14.0349 9.71577 13.7236C9.71577 13.4124 9.96802 13.1602 10.2792 13.1602H11.1525V12.2869C11.1525 11.9757 11.4048 11.7234 11.716 11.7234C12.0272 11.7234 12.2794 11.9757 12.2794 12.2869V13.1602H13.1527C13.4639 13.1602 13.7162 13.4124 13.7162 13.7236C13.7162 14.0349 13.4639 14.2871 13.1527 14.2871Z" fill="black"/>
</svg>
