<svg width="209" height="48" viewBox="0 0 209 48" fill="none" xmlns="http://www.w3.org/2000/svg">
    <g filter="url(#filter0_d_914_1912)">
        <rect x="47.5" y="0.5" width="157" height="39" rx="1.5" stroke="#35795E" shape-rendering="crispEdges"/>
    </g>
    <path d="M63.016 14.8V18.808H67.728V20.072H63.016V25H61.464V13.536H68.528V14.8H63.016ZM72.8878 16.768C73.4798 16.768 74.0131 16.8667 74.4878 17.064C74.9624 17.2613 75.3678 17.5413 75.7038 17.904C76.0398 18.2667 76.2958 18.7067 76.4718 19.224C76.6531 19.736 76.7438 20.3093 76.7438 20.944C76.7438 21.584 76.6531 22.16 76.4718 22.672C76.2958 23.184 76.0398 23.6213 75.7038 23.984C75.3678 24.3467 74.9624 24.6267 74.4878 24.824C74.0131 25.016 73.4798 25.112 72.8878 25.112C72.2904 25.112 71.7518 25.016 71.2718 24.824C70.7971 24.6267 70.3918 24.3467 70.0558 23.984C69.7198 23.6213 69.4611 23.184 69.2798 22.672C69.1038 22.16 69.0158 21.584 69.0158 20.944C69.0158 20.3093 69.1038 19.736 69.2798 19.224C69.4611 18.7067 69.7198 18.2667 70.0558 17.904C70.3918 17.5413 70.7971 17.2613 71.2718 17.064C71.7518 16.8667 72.2904 16.768 72.8878 16.768ZM72.8878 24C73.6878 24 74.2851 23.7333 74.6798 23.2C75.0744 22.6613 75.2718 21.912 75.2718 20.952C75.2718 19.9867 75.0744 19.2347 74.6798 18.696C74.2851 18.1573 73.6878 17.888 72.8878 17.888C72.4824 17.888 72.1278 17.9573 71.8238 18.096C71.5251 18.2347 71.2744 18.4347 71.0718 18.696C70.8744 18.9573 70.7251 19.28 70.6238 19.664C70.5278 20.0427 70.4798 20.472 70.4798 20.952C70.4798 21.912 70.6771 22.6613 71.0718 23.2C71.4718 23.7333 72.0771 24 72.8878 24ZM80.0219 13.216V25H78.5979V13.216H80.0219ZM83.8031 13.216V25H82.3791V13.216H83.8031ZM89.5284 16.768C90.1204 16.768 90.6537 16.8667 91.1284 17.064C91.603 17.2613 92.0084 17.5413 92.3444 17.904C92.6804 18.2667 92.9364 18.7067 93.1124 19.224C93.2937 19.736 93.3844 20.3093 93.3844 20.944C93.3844 21.584 93.2937 22.16 93.1124 22.672C92.9364 23.184 92.6804 23.6213 92.3444 23.984C92.0084 24.3467 91.603 24.6267 91.1284 24.824C90.6537 25.016 90.1204 25.112 89.5284 25.112C88.931 25.112 88.3924 25.016 87.9124 24.824C87.4377 24.6267 87.0324 24.3467 86.6964 23.984C86.3604 23.6213 86.1017 23.184 85.9204 22.672C85.7444 22.16 85.6564 21.584 85.6564 20.944C85.6564 20.3093 85.7444 19.736 85.9204 19.224C86.1017 18.7067 86.3604 18.2667 86.6964 17.904C87.0324 17.5413 87.4377 17.2613 87.9124 17.064C88.3924 16.8667 88.931 16.768 89.5284 16.768ZM89.5284 24C90.3284 24 90.9257 23.7333 91.3204 23.2C91.715 22.6613 91.9124 21.912 91.9124 20.952C91.9124 19.9867 91.715 19.2347 91.3204 18.696C90.9257 18.1573 90.3284 17.888 89.5284 17.888C89.123 17.888 88.7684 17.9573 88.4644 18.096C88.1657 18.2347 87.915 18.4347 87.7124 18.696C87.515 18.9573 87.3657 19.28 87.2644 19.664C87.1684 20.0427 87.1204 20.472 87.1204 20.952C87.1204 21.912 87.3177 22.6613 87.7124 23.2C88.1124 23.7333 88.7177 24 89.5284 24ZM106.242 16.896L103.618 25H102.49C102.351 25 102.255 24.9093 102.201 24.728L100.41 19.232C100.367 19.1093 100.332 18.9867 100.306 18.864C100.279 18.736 100.252 18.6107 100.226 18.488C100.199 18.6107 100.172 18.736 100.146 18.864C100.119 18.9867 100.084 19.112 100.042 19.24L98.2175 24.728C98.1695 24.9093 98.0628 25 97.8975 25H96.8255L94.2015 16.896H95.3215C95.4335 16.896 95.5268 16.9253 95.6015 16.984C95.6815 17.0427 95.7348 17.112 95.7615 17.192L97.3135 22.408C97.4042 22.792 97.4762 23.1547 97.5295 23.496C97.5775 23.32 97.6255 23.1413 97.6735 22.96C97.7268 22.7787 97.7828 22.5947 97.8415 22.408L99.5535 17.16C99.5802 17.08 99.6255 17.0133 99.6895 16.96C99.7588 16.9067 99.8415 16.88 99.9375 16.88H100.562C100.668 16.88 100.756 16.9067 100.826 16.96C100.895 17.0133 100.943 17.08 100.97 17.16L102.642 22.408C102.7 22.5947 102.754 22.7787 102.802 22.96C102.85 23.1413 102.895 23.32 102.938 23.496C102.964 23.32 102.996 23.144 103.034 22.968C103.076 22.7867 103.122 22.6 103.17 22.408L104.754 17.192C104.78 17.1067 104.831 17.0373 104.906 16.984C104.98 16.9253 105.068 16.896 105.17 16.896H106.242ZM114.81 16.768C115.402 16.768 115.935 16.8667 116.41 17.064C116.884 17.2613 117.29 17.5413 117.626 17.904C117.962 18.2667 118.218 18.7067 118.394 19.224C118.575 19.736 118.666 20.3093 118.666 20.944C118.666 21.584 118.575 22.16 118.394 22.672C118.218 23.184 117.962 23.6213 117.626 23.984C117.29 24.3467 116.884 24.6267 116.41 24.824C115.935 25.016 115.402 25.112 114.81 25.112C114.212 25.112 113.674 25.016 113.194 24.824C112.719 24.6267 112.314 24.3467 111.978 23.984C111.642 23.6213 111.383 23.184 111.202 22.672C111.026 22.16 110.938 21.584 110.938 20.944C110.938 20.3093 111.026 19.736 111.202 19.224C111.383 18.7067 111.642 18.2667 111.978 17.904C112.314 17.5413 112.719 17.2613 113.194 17.064C113.674 16.8667 114.212 16.768 114.81 16.768ZM114.81 24C115.61 24 116.207 23.7333 116.602 23.2C116.996 22.6613 117.194 21.912 117.194 20.952C117.194 19.9867 116.996 19.2347 116.602 18.696C116.207 18.1573 115.61 17.888 114.81 17.888C114.404 17.888 114.05 17.9573 113.746 18.096C113.447 18.2347 113.196 18.4347 112.994 18.696C112.796 18.9573 112.647 19.28 112.546 19.664C112.45 20.0427 112.402 20.472 112.402 20.952C112.402 21.912 112.599 22.6613 112.994 23.2C113.394 23.7333 113.999 24 114.81 24ZM121.816 18.072C121.992 17.8747 122.178 17.696 122.376 17.536C122.573 17.376 122.781 17.24 123 17.128C123.224 17.0107 123.458 16.9227 123.704 16.864C123.954 16.8 124.224 16.768 124.512 16.768C124.954 16.768 125.344 16.8427 125.68 16.992C126.021 17.136 126.304 17.344 126.528 17.616C126.757 17.8827 126.93 18.2053 127.048 18.584C127.165 18.9627 127.224 19.3813 127.224 19.84V25H125.792V19.84C125.792 19.2267 125.65 18.752 125.368 18.416C125.09 18.0747 124.666 17.904 124.096 17.904C123.674 17.904 123.28 18.0053 122.912 18.208C122.549 18.4107 122.213 18.6853 121.904 19.032V25H120.472V16.896H121.328C121.53 16.896 121.656 16.9947 121.704 17.192L121.816 18.072ZM141.091 14.84H137.379V25H135.835V14.84H132.115V13.536H141.091V14.84ZM145.927 20.064C145.927 19.7333 145.879 19.432 145.783 19.16C145.692 18.8827 145.556 18.6453 145.375 18.448C145.199 18.2453 144.983 18.0907 144.727 17.984C144.471 17.872 144.18 17.816 143.855 17.816C143.172 17.816 142.631 18.016 142.231 18.416C141.836 18.8107 141.591 19.36 141.495 20.064H145.927ZM147.079 23.864C146.903 24.0773 146.692 24.264 146.447 24.424C146.202 24.5787 145.938 24.7067 145.655 24.808C145.378 24.9093 145.09 24.984 144.791 25.032C144.492 25.0853 144.196 25.112 143.903 25.112C143.343 25.112 142.826 25.0187 142.351 24.832C141.882 24.64 141.474 24.3627 141.127 24C140.786 23.632 140.519 23.1787 140.327 22.64C140.135 22.1013 140.039 21.4827 140.039 20.784C140.039 20.2187 140.124 19.6907 140.295 19.2C140.471 18.7093 140.722 18.2853 141.047 17.928C141.372 17.5653 141.77 17.2827 142.239 17.08C142.708 16.872 143.236 16.768 143.823 16.768C144.308 16.768 144.756 16.8507 145.167 17.016C145.583 17.176 145.94 17.4107 146.239 17.72C146.543 18.024 146.78 18.4027 146.951 18.856C147.122 19.304 147.207 19.816 147.207 20.392C147.207 20.616 147.183 20.7653 147.135 20.84C147.087 20.9147 146.996 20.952 146.863 20.952H141.447C141.463 21.464 141.532 21.9093 141.655 22.288C141.783 22.6667 141.959 22.984 142.183 23.24C142.407 23.4907 142.674 23.68 142.983 23.808C143.292 23.9307 143.639 23.992 144.023 23.992C144.38 23.992 144.687 23.952 144.943 23.872C145.204 23.7867 145.428 23.696 145.615 23.6C145.802 23.504 145.956 23.416 146.079 23.336C146.207 23.2507 146.316 23.208 146.407 23.208C146.524 23.208 146.615 23.2533 146.679 23.344L147.079 23.864ZM150.428 13.216V25H149.004V13.216H150.428ZM158.161 20.064C158.161 19.7333 158.113 19.432 158.017 19.16C157.927 18.8827 157.791 18.6453 157.609 18.448C157.433 18.2453 157.217 18.0907 156.961 17.984C156.705 17.872 156.415 17.816 156.089 17.816C155.407 17.816 154.865 18.016 154.465 18.416C154.071 18.8107 153.825 19.36 153.729 20.064H158.161ZM159.313 23.864C159.137 24.0773 158.927 24.264 158.681 24.424C158.436 24.5787 158.172 24.7067 157.889 24.808C157.612 24.9093 157.324 24.984 157.025 25.032C156.727 25.0853 156.431 25.112 156.137 25.112C155.577 25.112 155.06 25.0187 154.585 24.832C154.116 24.64 153.708 24.3627 153.361 24C153.02 23.632 152.753 23.1787 152.561 22.64C152.369 22.1013 152.273 21.4827 152.273 20.784C152.273 20.2187 152.359 19.6907 152.529 19.2C152.705 18.7093 152.956 18.2853 153.281 17.928C153.607 17.5653 154.004 17.2827 154.473 17.08C154.943 16.872 155.471 16.768 156.057 16.768C156.543 16.768 156.991 16.8507 157.401 17.016C157.817 17.176 158.175 17.4107 158.473 17.72C158.777 18.024 159.015 18.4027 159.185 18.856C159.356 19.304 159.441 19.816 159.441 20.392C159.441 20.616 159.417 20.7653 159.369 20.84C159.321 20.9147 159.231 20.952 159.097 20.952H153.681C153.697 21.464 153.767 21.9093 153.889 22.288C154.017 22.6667 154.193 22.984 154.417 23.24C154.641 23.4907 154.908 23.68 155.217 23.808C155.527 23.9307 155.873 23.992 156.257 23.992C156.615 23.992 156.921 23.952 157.177 23.872C157.439 23.7867 157.663 23.696 157.849 23.6C158.036 23.504 158.191 23.416 158.313 23.336C158.441 23.2507 158.551 23.208 158.641 23.208C158.759 23.208 158.849 23.2533 158.913 23.344L159.313 23.864ZM164.015 21.04C164.303 21.04 164.556 21 164.775 20.92C164.993 20.84 165.177 20.728 165.327 20.584C165.476 20.44 165.588 20.2693 165.663 20.072C165.737 19.8693 165.775 19.648 165.775 19.408C165.775 18.912 165.623 18.5173 165.319 18.224C165.02 17.9307 164.585 17.784 164.015 17.784C163.439 17.784 162.999 17.9307 162.695 18.224C162.396 18.5173 162.247 18.912 162.247 19.408C162.247 19.648 162.284 19.8693 162.359 20.072C162.439 20.2693 162.553 20.44 162.703 20.584C162.852 20.728 163.036 20.84 163.255 20.92C163.473 21 163.727 21.04 164.015 21.04ZM166.583 25.44C166.583 25.2427 166.527 25.0827 166.415 24.96C166.303 24.8373 166.151 24.7413 165.959 24.672C165.772 24.6027 165.553 24.5547 165.303 24.528C165.052 24.496 164.785 24.472 164.503 24.456C164.225 24.44 163.943 24.424 163.655 24.408C163.367 24.392 163.089 24.3653 162.823 24.328C162.524 24.4667 162.279 24.6427 162.087 24.856C161.9 25.064 161.807 25.3093 161.807 25.592C161.807 25.7733 161.852 25.9413 161.943 26.096C162.039 26.256 162.183 26.392 162.375 26.504C162.567 26.6213 162.807 26.712 163.095 26.776C163.388 26.8453 163.732 26.88 164.127 26.88C164.511 26.88 164.855 26.8453 165.159 26.776C165.463 26.7067 165.719 26.608 165.927 26.48C166.14 26.352 166.303 26.2 166.415 26.024C166.527 25.848 166.583 25.6533 166.583 25.44ZM168.031 17.216V17.744C168.031 17.92 167.919 18.032 167.695 18.08L166.775 18.2C166.956 18.552 167.047 18.9413 167.047 19.368C167.047 19.7627 166.969 20.1227 166.815 20.448C166.665 20.768 166.457 21.0427 166.191 21.272C165.924 21.5013 165.604 21.6773 165.231 21.8C164.857 21.9227 164.452 21.984 164.015 21.984C163.636 21.984 163.279 21.9387 162.943 21.848C162.772 21.9547 162.641 22.0693 162.551 22.192C162.46 22.3093 162.414 22.4293 162.414 22.552C162.414 22.744 162.492 22.8907 162.647 22.992C162.807 23.088 163.015 23.1573 163.271 23.2C163.527 23.2427 163.817 23.2693 164.143 23.28C164.473 23.2907 164.809 23.3093 165.151 23.336C165.497 23.3573 165.833 23.3973 166.159 23.456C166.489 23.5147 166.783 23.6107 167.039 23.744C167.295 23.8773 167.5 24.0613 167.655 24.296C167.815 24.5307 167.895 24.8347 167.895 25.208C167.895 25.5547 167.807 25.8907 167.631 26.216C167.46 26.5413 167.212 26.8293 166.887 27.08C166.561 27.336 166.161 27.5387 165.687 27.688C165.217 27.8427 164.687 27.92 164.095 27.92C163.503 27.92 162.985 27.8613 162.543 27.744C162.1 27.6267 161.732 27.4693 161.439 27.272C161.145 27.0747 160.924 26.8453 160.775 26.584C160.631 26.328 160.559 26.0587 160.559 25.776C160.559 25.376 160.684 25.0373 160.935 24.76C161.185 24.4827 161.529 24.2613 161.967 24.096C161.727 23.9893 161.535 23.848 161.391 23.672C161.252 23.4907 161.183 23.248 161.183 22.944C161.183 22.8267 161.204 22.7067 161.247 22.584C161.289 22.456 161.353 22.3307 161.439 22.208C161.529 22.08 161.639 21.96 161.767 21.848C161.895 21.736 162.044 21.6373 162.215 21.552C161.815 21.328 161.503 21.032 161.279 20.664C161.055 20.2907 160.943 19.8587 160.943 19.368C160.943 18.9733 161.017 18.616 161.167 18.296C161.321 17.9707 161.535 17.696 161.807 17.472C162.079 17.2427 162.401 17.0667 162.775 16.944C163.153 16.8213 163.567 16.76 164.015 16.76C164.367 16.76 164.695 16.8 164.999 16.88C165.303 16.9547 165.58 17.0667 165.831 17.216H168.031ZM170.855 18.52C171.111 17.9653 171.426 17.5333 171.799 17.224C172.172 16.9093 172.628 16.752 173.167 16.752C173.338 16.752 173.5 16.7707 173.655 16.808C173.815 16.8453 173.956 16.904 174.079 16.984L173.975 18.048C173.943 18.1813 173.863 18.248 173.735 18.248C173.66 18.248 173.551 18.232 173.407 18.2C173.263 18.168 173.1 18.152 172.919 18.152C172.663 18.152 172.434 18.1893 172.231 18.264C172.034 18.3387 171.855 18.4507 171.695 18.6C171.54 18.744 171.399 18.9253 171.271 19.144C171.148 19.3573 171.036 19.6027 170.935 19.88V25H169.503V16.896H170.319C170.474 16.896 170.58 16.9253 170.639 16.984C170.698 17.0427 170.738 17.144 170.759 17.288L170.855 18.52ZM179.598 21.352C178.942 21.3733 178.382 21.4267 177.918 21.512C177.459 21.592 177.083 21.6987 176.79 21.832C176.502 21.9653 176.291 22.1227 176.158 22.304C176.03 22.4853 175.966 22.688 175.966 22.912C175.966 23.1253 176.001 23.3093 176.07 23.464C176.139 23.6187 176.233 23.7467 176.35 23.848C176.473 23.944 176.614 24.016 176.774 24.064C176.939 24.1067 177.115 24.128 177.302 24.128C177.553 24.128 177.782 24.104 177.99 24.056C178.198 24.0027 178.393 23.928 178.574 23.832C178.761 23.736 178.937 23.6213 179.102 23.488C179.273 23.3547 179.438 23.2027 179.598 23.032V21.352ZM174.998 18.04C175.446 17.608 175.929 17.2853 176.446 17.072C176.963 16.8587 177.537 16.752 178.166 16.752C178.619 16.752 179.022 16.8267 179.374 16.976C179.726 17.1253 180.022 17.3333 180.262 17.6C180.502 17.8667 180.683 18.1893 180.806 18.568C180.929 18.9467 180.99 19.3627 180.99 19.816V25H180.358C180.219 25 180.113 24.9787 180.038 24.936C179.963 24.888 179.905 24.7973 179.862 24.664L179.702 23.896C179.489 24.0933 179.281 24.2693 179.078 24.424C178.875 24.5733 178.662 24.7013 178.438 24.808C178.214 24.9093 177.974 24.9867 177.718 25.04C177.467 25.0987 177.187 25.128 176.878 25.128C176.563 25.128 176.267 25.0853 175.99 25C175.713 24.9093 175.47 24.776 175.262 24.6C175.059 24.424 174.897 24.2027 174.774 23.936C174.657 23.664 174.598 23.344 174.598 22.976C174.598 22.656 174.686 22.3493 174.862 22.056C175.038 21.7573 175.323 21.4933 175.718 21.264C176.113 21.0347 176.627 20.848 177.262 20.704C177.897 20.5547 178.675 20.4693 179.598 20.448V19.816C179.598 19.1867 179.462 18.712 179.19 18.392C178.918 18.0667 178.521 17.904 177.998 17.904C177.646 17.904 177.35 17.9493 177.11 18.04C176.875 18.1253 176.67 18.224 176.494 18.336C176.323 18.4427 176.174 18.5413 176.046 18.632C175.923 18.7173 175.801 18.76 175.678 18.76C175.582 18.76 175.499 18.736 175.43 18.688C175.361 18.6347 175.302 18.5707 175.254 18.496L174.998 18.04ZM183.159 25V16.896H184.015C184.218 16.896 184.343 16.9947 184.391 17.192L184.495 18.024C184.794 17.656 185.13 17.3547 185.503 17.12C185.877 16.8853 186.309 16.768 186.799 16.768C187.343 16.768 187.783 16.92 188.119 17.224C188.461 17.528 188.706 17.9387 188.855 18.456C188.973 18.1627 189.122 17.9093 189.303 17.696C189.49 17.4827 189.698 17.3067 189.927 17.168C190.157 17.0293 190.399 16.928 190.655 16.864C190.917 16.8 191.181 16.768 191.447 16.768C191.874 16.768 192.253 16.8373 192.583 16.976C192.919 17.1093 193.202 17.3067 193.431 17.568C193.666 17.8293 193.845 18.152 193.967 18.536C194.09 18.9147 194.151 19.3493 194.151 19.84V25H192.719V19.84C192.719 19.2053 192.581 18.7253 192.303 18.4C192.026 18.0693 191.626 17.904 191.103 17.904C190.869 17.904 190.645 17.9467 190.431 18.032C190.223 18.112 190.039 18.232 189.879 18.392C189.719 18.552 189.591 18.7547 189.495 19C189.405 19.24 189.359 19.52 189.359 19.84V25H187.927V19.84C187.927 19.1893 187.797 18.704 187.535 18.384C187.274 18.064 186.893 17.904 186.391 17.904C186.039 17.904 185.714 18 185.415 18.192C185.117 18.3787 184.842 18.6347 184.591 18.96V25H183.159Z" fill="#35795E"/>
    <rect width="40" height="40" rx="20" fill="url(#paint0_linear_914_1912)"/>
    <path fill-rule="evenodd" clip-rule="evenodd" d="M9.05368 19.7889C14.8841 17.2487 18.7719 15.574 20.7172 14.7649C26.2715 12.4547 27.4256 12.0534 28.1778 12.0402C28.3433 12.0373 28.7132 12.0783 28.9528 12.2727C29.1551 12.4369 29.2108 12.6587 29.2375 12.8143C29.2641 12.97 29.2973 13.3246 29.2709 13.6017C28.9699 16.7641 27.6676 24.4386 27.005 27.9806C26.7246 29.4794 26.1726 29.9819 25.6382 30.0311C24.4767 30.138 23.5948 29.2635 22.4699 28.5261C20.7096 27.3723 19.7152 26.654 18.0066 25.528C16.0319 24.2268 17.312 23.5116 18.4373 22.3428C18.7318 22.0369 23.8492 17.3823 23.9482 16.96C23.9606 16.9072 23.9721 16.7104 23.8551 16.6065C23.7382 16.5025 23.5656 16.5381 23.4411 16.5663C23.2645 16.6064 20.4525 18.465 15.0049 22.1423C14.2067 22.6904 13.4838 22.9574 12.836 22.9434C12.1219 22.928 10.7483 22.5397 9.72709 22.2077C8.47459 21.8006 7.47913 21.5853 7.56581 20.8939C7.61096 20.5337 8.10692 20.1654 9.05368 19.7889Z" fill="white"/>
    <defs>
        <filter id="filter0_d_914_1912" x="43" y="0" width="166" height="48" filterUnits="userSpaceOnUse" color-interpolation-filters="sRGB">
            <feFlood flood-opacity="0" result="BackgroundImageFix"/>
            <feColorMatrix in="SourceAlpha" type="matrix" values="0 0 0 0 0 0 0 0 0 0 0 0 0 0 0 0 0 0 127 0" result="hardAlpha"/>
            <feOffset dy="4"/>
            <feGaussianBlur stdDeviation="2"/>
            <feComposite in2="hardAlpha" operator="out"/>
            <feColorMatrix type="matrix" values="0 0 0 0 0 0 0 0 0 0 0 0 0 0 0 0 0 0 0.25 0"/>
            <feBlend mode="normal" in2="BackgroundImageFix" result="effect1_dropShadow_914_1912"/>
            <feBlend mode="normal" in="SourceGraphic" in2="effect1_dropShadow_914_1912" result="shape"/>
        </filter>
        <linearGradient id="paint0_linear_914_1912" x1="20" y1="0" x2="20" y2="39.7033" gradientUnits="userSpaceOnUse">
            <stop stop-color="#2AABEE"/>
            <stop offset="1" stop-color="#229ED9"/>
        </linearGradient>
    </defs>
</svg>
