<?xml version="1.0" standalone="no"?>
<!DOCTYPE svg PUBLIC "-//W3C//DTD SVG 20010904//EN"
 "http://www.w3.org/TR/2001/REC-SVG-20010904/DTD/svg10.dtd">
<svg version="1.0" xmlns="http://www.w3.org/2000/svg"
 width="840.000000pt" height="936.000000pt" viewBox="0 0 840.000000 936.000000"
 preserveAspectRatio="xMidYMid meet">

<g transform="translate(0.000000,936.000000) scale(0.100000,-0.100000)"
fill="#000000" stroke="none">
<path d="M3472 8818 l3 -243 243 -3 242 -2 0 -244 0 -243 -122 -12 c-1359
-130 -2543 -950 -3143 -2176 -155 -318 -271 -677 -334 -1035 -75 -424 -73
-934 5 -1360 226 -1229 1014 -2267 2136 -2810 694 -335 1447 -455 2228 -354
567 74 1147 294 1640 624 792 530 1374 1353 1605 2270 133 529 156 1092 65
1627 -175 1029 -775 1959 -1645 2552 -539 367 -1135 586 -1792 657 l-163 18 0
243 0 243 243 2 242 3 3 243 2 242 -730 0 -730 0 2 -242z m1138 -1242 c478
-59 937 -216 1346 -463 765 -461 1323 -1208 1543 -2067 190 -738 131 -1502
-171 -2206 -175 -408 -460 -814 -789 -1122 -519 -487 -1138 -787 -1845 -895
-164 -25 -204 -27 -484 -27 -325 -1 -422 7 -685 60 -1170 231 -2155 1089
-2543 2214 -222 647 -250 1318 -82 1975 283 1104 1112 1999 2195 2372 215 74
531 144 735 162 63 6 133 13 155 15 85 9 506 -4 625 -18z"/>
<path d="M3960 5620 c0 -654 -3 -1010 -10 -1010 -5 0 -41 -30 -80 -66 -51 -49
-80 -86 -105 -138 -133 -272 18 -605 310 -681 132 -34 277 -11 391 63 202 131
276 400 169 618 -25 52 -54 89 -105 138 -39 36 -75 66 -80 66 -7 0 -10 356
-10 1010 l0 1010 -240 0 -240 0 0 -1010z"/>
</g>
</svg>
