<svg width="25" height="24" viewBox="0 0 25 24" fill="none" xmlns="http://www.w3.org/2000/svg">
<path d="M5.62143 7.02979C5.52275 7.02988 5.42507 7.04945 5.33397 7.08737C5.24287 7.12528 5.16014 7.18079 5.09054 7.25074C5.02094 7.32068 4.96584 7.40368 4.92837 7.49496C4.8909 7.58624 4.87181 7.68402 4.8722 7.78269C4.8724 7.98134 4.95139 8.17179 5.09185 8.31225C5.23232 8.45271 5.42278 8.53171 5.62143 8.53191H18.6423C19.4549 8.53191 20.0115 9.0801 20.0115 9.69078V11.001C20.0111 11.1 20.0303 11.1981 20.068 11.2896C20.1057 11.3811 20.1612 11.4643 20.2312 11.5342C20.3012 11.6042 20.3843 11.6597 20.4758 11.6974C20.5674 11.7351 20.6654 11.7543 20.7644 11.7539C20.8631 11.7538 20.9608 11.7342 21.0519 11.6963C21.143 11.6584 21.2257 11.6029 21.2953 11.5329C21.3649 11.463 21.42 11.38 21.4575 11.2887C21.4949 11.1974 21.514 11.0997 21.5136 11.001V9.69078C21.5136 8.1859 20.1796 7.02979 18.6423 7.02979H5.62143Z" fill="white"/>
<path d="M18.6606 10.2517C17.5639 10.2517 16.6603 11.159 16.6603 12.2558V13.7579C16.6603 14.8546 17.5639 15.7619 18.6606 15.762H20.7459C21.8427 15.762 22.75 14.8546 22.75 13.7579V12.2558C22.75 11.159 21.8427 10.2517 20.7459 10.2517H18.6606ZM18.6606 11.7538H20.7459C21.032 11.7538 21.2478 11.9696 21.2478 12.2558V13.7579C21.2478 14.044 21.032 14.2598 20.7459 14.2598H18.6606C18.3745 14.2598 18.1587 14.044 18.1587 13.7579V12.2558C18.1587 11.9696 18.3745 11.7538 18.6606 11.7538Z" fill="white"/>
<path d="M12.2315 15.5664C12.0328 15.5666 11.8424 15.6456 11.7019 15.7861C11.5614 15.9265 11.4824 16.117 11.4822 16.3156V20.2499C11.4824 20.4486 11.5614 20.639 11.7019 20.7795C11.8424 20.9199 12.0328 20.9989 12.2315 20.9991C12.4301 20.9989 12.6205 20.9199 12.761 20.7795C12.9015 20.639 12.9805 20.4486 12.9807 20.2499V16.3156C12.9805 16.117 12.9015 15.9265 12.761 15.7861C12.6205 15.6456 12.4301 15.5666 12.2315 15.5664Z" fill="white"/>
<path d="M12.2314 15.5664C12.1326 15.5665 12.0348 15.5861 11.9436 15.6241C11.8524 15.6621 11.7696 15.7177 11.6999 15.7878L9.72172 17.7771C9.58149 17.9177 9.50275 18.1082 9.50275 18.3068C9.50275 18.5053 9.58149 18.6958 9.72172 18.8364C9.79141 18.9064 9.87424 18.9619 9.96544 18.9998C10.0566 19.0377 10.1544 19.0572 10.2532 19.0572C10.352 19.0572 10.4497 19.0377 10.5409 18.9998C10.6322 18.9619 10.715 18.9064 10.7846 18.8364L12.7629 16.8471C12.8326 16.7772 12.8879 16.6941 12.9254 16.6028C12.963 16.5115 12.9822 16.4136 12.9818 16.3148C12.9815 16.2161 12.9616 16.1183 12.9234 16.0273C12.8852 15.9362 12.8293 15.8536 12.7591 15.7842C12.6188 15.6448 12.4292 15.5666 12.2314 15.5664Z" fill="white"/>
<path d="M12.2352 15.5664C12.1367 15.566 12.039 15.585 11.9478 15.6224C11.8566 15.6598 11.7737 15.7147 11.7037 15.7842C11.6335 15.8536 11.5777 15.9362 11.5395 16.0273C11.5012 16.1183 11.4814 16.2161 11.481 16.3148C11.4807 16.4136 11.4998 16.5115 11.5374 16.6028C11.575 16.6941 11.6302 16.7772 11.7 16.8471L13.6782 18.8364C13.7479 18.9064 13.8307 18.9619 13.9219 18.9998C14.0131 19.0377 14.1109 19.0572 14.2097 19.0572C14.3084 19.0572 14.4062 19.0377 14.4974 18.9998C14.5886 18.9619 14.6714 18.9064 14.7411 18.8364C14.8819 18.6963 14.9613 18.5061 14.962 18.3075C14.9627 18.109 14.8846 17.9182 14.7449 17.7772L12.763 15.7879C12.6233 15.6472 12.4335 15.5676 12.2352 15.5664Z" fill="white"/>
<path d="M3.49923 5.12183C3.30058 5.12202 3.11013 5.20101 2.96967 5.34147C2.8292 5.48193 2.7502 5.67239 2.75 5.87103V16.3748C2.75 17.8797 4.08406 19.0321 5.6214 19.0321H7.75093C7.94957 19.0319 8.14003 18.9529 8.28049 18.8125C8.42095 18.672 8.49995 18.4815 8.50015 18.2829C8.49995 18.0843 8.42095 17.8938 8.28049 17.7534C8.14003 17.6129 7.94957 17.5339 7.75093 17.5337H5.6214C4.8088 17.5337 4.25214 16.9855 4.25214 16.3748V5.87103C4.25204 5.77236 4.23247 5.67468 4.19455 5.58359C4.15664 5.49249 4.10113 5.40977 4.03118 5.34018C3.96124 5.27058 3.87824 5.21545 3.78696 5.17799C3.69568 5.14052 3.5979 5.12144 3.49923 5.12183ZM20.7644 14.26C20.6654 14.2596 20.5673 14.2788 20.4758 14.3165C20.3843 14.3542 20.3011 14.4097 20.2311 14.4797C20.1611 14.5497 20.1057 14.6328 20.068 14.7243C20.0303 14.8159 20.0111 14.9139 20.0115 15.0129V16.3748C20.0115 16.9855 19.4548 17.5337 18.6422 17.5337H16.7489C16.5503 17.5339 16.3598 17.6129 16.2193 17.7533C16.0789 17.8938 15.9999 18.0843 15.9997 18.2829C15.9999 18.4815 16.0789 18.672 16.2193 18.8125C16.3598 18.9529 16.5503 19.0319 16.7489 19.0321H18.6422C20.1796 19.0321 21.5136 17.8797 21.5136 16.3748V15.0129C21.514 14.9143 21.4949 14.8165 21.4574 14.7252C21.42 14.6339 21.3649 14.5509 21.2953 14.481C21.2257 14.411 21.1429 14.3555 21.0518 14.3176C20.9608 14.2797 20.8631 14.2601 20.7644 14.26Z" fill="white"/>
<path d="M5.6214 3.21362C4.08514 3.2136 2.75 4.36625 2.75 5.87094C2.75 7.37562 4.08514 8.53194 5.6214 8.53194C5.82005 8.53174 6.01049 8.45275 6.15095 8.31229C6.29141 8.17183 6.37041 7.98137 6.37061 7.78273C6.37099 7.68406 6.35191 7.58628 6.31444 7.495C6.27697 7.40371 6.22186 7.32073 6.15226 7.25079C6.08266 7.18085 5.99994 7.12532 5.90885 7.0874C5.81775 7.04948 5.72008 7.02992 5.6214 7.02982C4.81475 7.02982 4.25214 6.47498 4.25214 5.87094C4.25214 5.26689 4.81475 4.71203 5.6214 4.71205H16.963C17.4851 4.71205 17.893 5.11997 17.893 5.64211V7.78273C17.8932 7.98137 17.9722 8.17183 18.1127 8.31229C18.2531 8.45275 18.4436 8.53174 18.6422 8.53194C18.7409 8.53233 18.8387 8.51324 18.93 8.47577C19.0212 8.43831 19.1042 8.3832 19.1742 8.3136C19.2441 8.244 19.2996 8.16128 19.3376 8.07018C19.3755 7.97909 19.395 7.8814 19.3951 7.78273V5.64211C19.3951 4.30936 18.2957 3.21362 16.963 3.21362H5.6214Z" fill="white"/>
</svg>
