<svg width="25" height="24" viewBox="0 0 25 24" fill="none" xmlns="http://www.w3.org/2000/svg">
<path d="M5.11813 7.02979C5.01946 7.02988 4.92177 7.04945 4.83067 7.08737C4.73958 7.12528 4.65685 7.18079 4.58725 7.25074C4.51764 7.32068 4.46254 7.40368 4.42507 7.49496C4.3876 7.58624 4.36851 7.68402 4.3689 7.78269C4.3691 7.98134 4.44809 8.17179 4.58856 8.31225C4.72902 8.45271 4.91949 8.53171 5.11813 8.53191H18.139C18.9516 8.53191 19.5082 9.0801 19.5082 9.69078V11.001C19.5078 11.1 19.527 11.1981 19.5647 11.2896C19.6024 11.3811 19.6579 11.4643 19.7279 11.5342C19.7979 11.6042 19.881 11.6597 19.9725 11.6974C20.0641 11.7351 20.1621 11.7543 20.2611 11.7539C20.3598 11.7538 20.4575 11.7342 20.5486 11.6963C20.6397 11.6584 20.7224 11.6029 20.792 11.5329C20.8616 11.463 20.9167 11.38 20.9542 11.2887C20.9916 11.1974 21.0107 11.0997 21.0103 11.001V9.69078C21.0103 8.1859 19.6763 7.02979 18.139 7.02979H5.11813Z" fill="white"/>
<path d="M18.1576 10.2517C17.0608 10.2517 16.1572 11.159 16.1572 12.2558V13.7579C16.1572 14.8546 17.0608 15.7619 18.1576 15.762H20.2428C21.3396 15.762 22.2469 14.8546 22.2469 13.7579V12.2558C22.2469 11.159 21.3396 10.2517 20.2428 10.2517H18.1576ZM18.1576 11.7538H20.2428C20.529 11.7538 20.7448 11.9696 20.7448 12.2558V13.7579C20.7448 14.044 20.529 14.2598 20.2428 14.2598H18.1576C17.8714 14.2598 17.6557 14.044 17.6557 13.7579V12.2558C17.6557 11.9696 17.8714 11.7538 18.1576 11.7538Z" fill="white"/>
<path d="M11.73 20.999C11.9287 20.9988 12.1191 20.9198 12.2596 20.7794C12.4001 20.6389 12.4791 20.4484 12.4792 20.2498L12.4792 16.3155C12.4791 16.1169 12.4001 15.9264 12.2596 15.7859C12.1191 15.6455 11.9287 15.5665 11.73 15.5663C11.5314 15.5665 11.3409 15.6455 11.2005 15.7859C11.06 15.9264 10.981 16.1168 10.9808 16.3155L10.9808 20.2498C10.981 20.4485 11.06 20.6389 11.2005 20.7794C11.3409 20.9198 11.5314 20.9988 11.73 20.999Z" fill="white"/>
<path d="M11.7301 20.999C11.8289 20.9989 11.9267 20.9793 12.0179 20.9413C12.1091 20.9033 12.1919 20.8477 12.2615 20.7776L14.2398 18.7883C14.38 18.6477 14.4587 18.4572 14.4587 18.2587C14.4587 18.0601 14.38 17.8696 14.2398 17.729C14.1701 17.6591 14.0872 17.6035 13.996 17.5656C13.9048 17.5277 13.8071 17.5082 13.7083 17.5082C13.6095 17.5082 13.5117 17.5277 13.4205 17.5656C13.3293 17.6035 13.2465 17.6591 13.1768 17.729L11.1986 19.7183C11.1289 19.7883 11.0736 19.8713 11.0361 19.9626C10.9985 20.054 10.9793 20.1518 10.9797 20.2506C10.98 20.3494 10.9999 20.4471 11.0381 20.5382C11.0763 20.6292 11.1322 20.7118 11.2024 20.7813C11.3427 20.9206 11.5323 20.9989 11.7301 20.999Z" fill="white"/>
<path d="M11.7263 20.999C11.8248 20.9994 11.9225 20.9804 12.0137 20.943C12.1049 20.9057 12.1878 20.8507 12.2577 20.7813C12.328 20.7118 12.3838 20.6292 12.422 20.5382C12.4603 20.4471 12.4801 20.3494 12.4805 20.2506C12.4808 20.1518 12.4617 20.054 12.4241 19.9626C12.3865 19.8713 12.3313 19.7883 12.2615 19.7183L10.2833 17.729C10.2136 17.6591 10.1308 17.6035 10.0396 17.5656C9.94839 17.5277 9.85059 17.5082 9.75183 17.5082C9.65307 17.5082 9.55527 17.5277 9.46407 17.5656C9.37287 17.6035 9.29005 17.6591 9.22037 17.729C9.07963 17.8691 9.00019 18.0593 8.99949 18.2579C8.99878 18.4565 9.07686 18.6472 9.21659 18.7883L11.1985 20.7776C11.3382 20.9183 11.528 20.9979 11.7263 20.999Z" fill="white"/>
<path d="M2.99606 5.12183C2.79741 5.12202 2.60696 5.20101 2.4665 5.34147C2.32603 5.48193 2.24702 5.67239 2.24683 5.87103V16.3748C2.24683 17.8797 3.58089 19.0321 5.11823 19.0321H7.24776C7.4464 19.0319 7.63686 18.9529 7.77732 18.8125C7.91778 18.672 7.99678 18.4815 7.99697 18.2829C7.99678 18.0843 7.91778 17.8938 7.77732 17.7534C7.63686 17.6129 7.4464 17.5339 7.24776 17.5337H5.11823C4.30563 17.5337 3.74896 16.9855 3.74896 16.3748V5.87103C3.74886 5.77236 3.7293 5.67468 3.69138 5.58359C3.65346 5.49249 3.59795 5.40977 3.52801 5.34018C3.45807 5.27058 3.37507 5.21545 3.28379 5.17799C3.19251 5.14052 3.09473 5.12144 2.99606 5.12183ZM20.2612 14.26C20.1622 14.2596 20.0642 14.2788 19.9726 14.3165C19.8811 14.3542 19.798 14.4097 19.728 14.4797C19.658 14.5497 19.6025 14.6328 19.5648 14.7243C19.5271 14.8159 19.5079 14.9139 19.5083 15.0129V16.3748C19.5083 16.9855 18.9517 17.5337 18.1391 17.5337H16.2457C16.0471 17.5339 15.8566 17.6129 15.7162 17.7533C15.5757 17.8938 15.4967 18.0843 15.4965 18.2829C15.4967 18.4816 15.5757 18.672 15.7162 18.8125C15.8566 18.9529 16.0471 19.0319 16.2457 19.0321H18.1391C19.6764 19.0321 21.0104 17.8797 21.0104 16.3748V15.0129C21.0108 14.9143 20.9917 14.8165 20.9543 14.7252C20.9168 14.6339 20.8617 14.5509 20.7921 14.481C20.7225 14.411 20.6398 14.3555 20.5487 14.3176C20.4576 14.2797 20.3599 14.2601 20.2612 14.26Z" fill="white"/>
<path d="M5.11823 3.21362C3.58197 3.2136 2.24683 4.36625 2.24683 5.87094C2.24683 7.37562 3.58197 8.53194 5.11823 8.53194C5.31687 8.53174 5.50732 8.45275 5.64778 8.31229C5.78824 8.17183 5.86723 7.98137 5.86743 7.78273C5.86782 7.68406 5.84873 7.58628 5.81126 7.495C5.7738 7.40371 5.71869 7.32073 5.64909 7.25079C5.57949 7.18085 5.49677 7.12532 5.40567 7.0874C5.31458 7.04949 5.2169 7.02992 5.11823 7.02982C4.31158 7.02982 3.74896 6.47498 3.74896 5.87094C3.74896 5.26689 4.31158 4.71203 5.11823 4.71205H16.4598C16.9819 4.71205 17.3898 5.11997 17.3898 5.64211V7.78273C17.39 7.98137 17.4691 8.17183 17.6095 8.31229C17.75 8.45275 17.9404 8.53174 18.1391 8.53194C18.2377 8.53233 18.3355 8.51324 18.4268 8.47577C18.5181 8.43831 18.6011 8.3832 18.671 8.3136C18.7409 8.244 18.7965 8.16128 18.8344 8.07019C18.8723 7.97909 18.8919 7.8814 18.892 7.78273V5.64211C18.892 4.30936 17.7925 3.21362 16.4598 3.21362H5.11823Z" fill="white"/>
</svg>
