<svg width="21" height="20" viewBox="0 0 21 20" fill="none" xmlns="http://www.w3.org/2000/svg">
<g id="Fill Ion Icons" clip-path="url(#clip0_2432_31530)">
<path id="Vector" d="M10.2525 0H10.2475C4.73375 0 0.25 4.485 0.25 10C0.25 12.1875 0.955 14.215 2.15375 15.8612L0.9075 19.5763L4.75125 18.3475C6.3325 19.395 8.21875 20 10.2525 20C15.7662 20 20.25 15.5138 20.25 10C20.25 4.48625 15.7662 0 10.2525 0Z" fill="#4CAF50"/>
<path id="Vector_2" d="M16.0712 14.1212C15.8299 14.8025 14.8724 15.3675 14.1087 15.5325C13.5862 15.6437 12.9037 15.7325 10.6062 14.78C7.66744 13.5625 5.77494 10.5762 5.62744 10.3825C5.48619 10.1887 4.43994 8.80123 4.43994 7.36623C4.43994 5.93123 5.16869 5.23248 5.46244 4.93248C5.70369 4.68623 6.10244 4.57373 6.48494 4.57373C6.60869 4.57373 6.71994 4.57998 6.81994 4.58498C7.11369 4.59748 7.26119 4.61498 7.45494 5.07873C7.69619 5.65998 8.28369 7.09498 8.35369 7.24248C8.42494 7.38998 8.49619 7.58998 8.39619 7.78373C8.30244 7.98373 8.21994 8.07248 8.07244 8.24248C7.92494 8.41248 7.78494 8.54248 7.63744 8.72498C7.50244 8.88373 7.34994 9.05373 7.51994 9.34748C7.68994 9.63498 8.27744 10.5937 9.14244 11.3637C10.2587 12.3575 11.1637 12.675 11.4874 12.81C11.7287 12.91 12.0162 12.8862 12.1924 12.6987C12.4162 12.4575 12.6924 12.0575 12.9737 11.6637C13.1737 11.3812 13.4262 11.3462 13.6912 11.4462C13.9612 11.54 15.3899 12.2462 15.6837 12.3925C15.9774 12.54 16.1712 12.61 16.2424 12.7337C16.3124 12.8575 16.3124 13.4387 16.0712 14.1212Z" fill="#FAFAFA"/>
</g>
<defs>
<clipPath id="clip0_2432_31530">
<rect width="20" height="20" fill="white" transform="translate(0.25)"/>
</clipPath>
</defs>
</svg>
